<?xml version="1.0" encoding="UTF-8" standalone="no"?>
<!DOCTYPE svg PUBLIC "-//W3C//DTD SVG 1.1//EN"
 "http://www.w3.org/Graphics/SVG/1.1/DTD/svg11.dtd">
<!-- Generated by graphviz version 13.0.1 (20250615.1724)
 -->
<!-- Pages: 1 -->
<svg width="1201pt" height="279pt"
 viewBox="0.00 0.00 1201.00 279.00" xmlns="http://www.w3.org/2000/svg" xmlns:xlink="http://www.w3.org/1999/xlink">
<g id="graph0" class="graph" transform="scale(1 1) rotate(0) translate(4 274.5)">
<polygon fill="white" stroke="none" points="-4,4 -4,-274.5 1196.91,-274.5 1196.91,4 -4,4"/>
<!-- Resource0 -->
<g id="node1" class="node">
<title>Resource0</title>
<ellipse fill="none" stroke="black" cx="112.26" cy="-91" rx="112.26" ry="18"/>
<text xml:space="preserve" text-anchor="middle" x="112.26" y="-85.95" font-family="Times,serif" font-size="14.00">organization/&lt;project&gt;/dev</text>
</g>
<!-- Resource1 -->
<g id="node2" class="node">
<title>Resource1</title>
<ellipse fill="none" stroke="black" cx="271.26" cy="-18" rx="77.45" ry="18"/>
<text xml:space="preserve" text-anchor="middle" x="271.26" y="-12.95" font-family="Times,serif" font-size="14.00">pulumi&#45;&lt;project&gt;</text>
</g>
<!-- Resource0&#45;&gt;Resource1 -->
<g id="edge1" class="edge">
<title>Resource0&#45;&gt;Resource1</title>
<path fill="none" stroke="#aa6639" d="M149.13,-73.53C172.07,-63.29 201.72,-50.05 226.07,-39.18"/>
<polygon fill="#aa6639" stroke="#aa6639" points="227.4,-42.42 235.1,-35.14 224.55,-36.03 227.4,-42.42"/>
</g>
<!-- Resource3 -->
<g id="node3" class="node">
<title>Resource3</title>
<ellipse fill="none" stroke="black" cx="452.26" cy="-164" rx="172.14" ry="18"/>
<text xml:space="preserve" text-anchor="middle" x="452.26" y="-158.95" font-family="Times,serif" font-size="14.00">dev&#45;&lt;project&gt;&#45;bucket&#45;123456789012&#45;build</text>
</g>
<!-- Resource3&#45;&gt;Resource1 -->
<g id="edge3" class="edge">
<title>Resource3&#45;&gt;Resource1</title>
<path fill="none" stroke="#aa6639" d="M430.78,-145.92C398.5,-120.23 337.35,-71.59 300.86,-42.55"/>
<polygon fill="#aa6639" stroke="#aa6639" points="303.33,-40.05 293.33,-36.56 298.97,-45.52 303.33,-40.05"/>
</g>
<!-- Resource4 -->
<g id="node4" class="node">
<title>Resource4</title>
<ellipse fill="none" stroke="black" cx="669.26" cy="-91" rx="203.87" ry="18"/>
<text xml:space="preserve" text-anchor="middle" x="669.26" y="-85.95" font-family="Times,serif" font-size="14.00">dev&#45;&lt;project&gt;&#45;bucket&#45;123456789012&#45;synced&#45;folder</text>
</g>
<!-- Resource3&#45;&gt;Resource4 -->
<g id="edge2" class="edge">
<title>Resource3&#45;&gt;Resource4</title>
<path fill="none" stroke="#246c60" d="M503.13,-146.35C534.2,-136.19 574.14,-123.12 607.07,-112.35"/>
<polygon fill="#246c60" stroke="#246c60" points="608.09,-115.69 616.51,-109.26 605.92,-109.04 608.09,-115.69"/>
</g>
<!-- Resource4&#45;&gt;Resource1 -->
<g id="edge7" class="edge">
<title>Resource4&#45;&gt;Resource1</title>
<path fill="none" stroke="#aa6639" d="M581.42,-74.33C509.68,-61.53 409.57,-43.67 342.69,-31.74"/>
<polygon fill="#aa6639" stroke="#aa6639" points="343.38,-28.31 332.92,-30 342.15,-35.2 343.38,-28.31"/>
</g>
<!-- Resource9 -->
<g id="node5" class="node">
<title>Resource9</title>
<ellipse fill="none" stroke="black" cx="906.26" cy="-252.5" rx="150.13" ry="18"/>
<text xml:space="preserve" text-anchor="middle" x="906.26" y="-247.45" font-family="Times,serif" font-size="14.00">dev&#45;&lt;project&gt;&#45;bucket&#45;123456789012</text>
</g>
<!-- Resource9&#45;&gt;Resource1 -->
<g id="edge4" class="edge">
<title>Resource9&#45;&gt;Resource1</title>
<path fill="none" stroke="#aa6639" d="M765.88,-245.9C588.9,-237.37 303.67,-218.15 271.26,-182 238.36,-145.31 250.22,-83.1 261.17,-47.08"/>
<polygon fill="#aa6639" stroke="#aa6639" points="264.42,-48.4 264.17,-37.81 257.76,-46.25 264.42,-48.4"/>
</g>
<!-- Resource9&#45;&gt;Resource4 -->
<g id="edge5" class="edge">
<title>Resource9&#45;&gt;Resource4</title>
<path fill="none" stroke="#246c60" d="M1029.46,-241.96C1124.29,-230.02 1231.08,-203.6 1179.26,-146 1157.68,-122.02 997.08,-107.88 861.79,-100.13"/>
<polygon fill="#246c60" stroke="#246c60" points="862.13,-96.65 851.95,-99.58 861.74,-103.63 862.13,-96.65"/>
</g>
<!-- Resource10 -->
<g id="node6" class="node">
<title>Resource10</title>
<ellipse fill="none" stroke="black" cx="906.26" cy="-164" rx="264.26" ry="18"/>
<text xml:space="preserve" text-anchor="middle" x="906.26" y="-158.95" font-family="Times,serif" font-size="14.00">dev&#45;&lt;project&gt;&#45;bucket&#45;123456789012&#45;synced&#45;folder&#45;sync&#45;command</text>
</g>
<!-- Resource9&#45;&gt;Resource10 -->
<g id="edge6" class="edge">
<title>Resource9&#45;&gt;Resource10</title>
<path fill="none" stroke="#246c60" d="M906.26,-234.41C906.26,-222.76 906.26,-207.05 906.26,-193.52"/>
<polygon fill="#246c60" stroke="#246c60" points="909.76,-193.86 906.26,-183.86 902.76,-193.86 909.76,-193.86"/>
<text xml:space="preserve" text-anchor="middle" x="964.01" y="-203.2" font-family="Times,serif" font-size="14.00">create, delete, update</text>
</g>
<!-- Resource10&#45;&gt;Resource4 -->
<g id="edge8" class="edge">
<title>Resource10&#45;&gt;Resource4</title>
<path fill="none" stroke="#aa6639" d="M849.49,-145.99C815.36,-135.77 771.75,-122.71 735.98,-111.99"/>
<polygon fill="#aa6639" stroke="#aa6639" points="737.19,-108.7 726.6,-109.18 735.18,-115.4 737.19,-108.7"/>
</g>
</g>
</svg>
