<?xml version="1.0" encoding="UTF-8" standalone="no"?>
<!DOCTYPE svg PUBLIC "-//W3C//DTD SVG 1.1//EN"
 "http://www.w3.org/Graphics/SVG/1.1/DTD/svg11.dtd">
<!-- Generated by graphviz version 13.0.1 (20250615.1724)
 -->
<!-- Pages: 1 -->
<svg width="1438pt" height="402pt"
 viewBox="0.00 0.00 1438.00 402.00" xmlns="http://www.w3.org/2000/svg" xmlns:xlink="http://www.w3.org/1999/xlink">
<g id="graph0" class="graph" transform="scale(1 1) rotate(0) translate(4 398)">
<polygon fill="white" stroke="none" points="-4,4 -4,-398 1434.26,-398 1434.26,4 -4,4"/>
<!-- Resource0 -->
<g id="node1" class="node">
<title>Resource0</title>
<ellipse fill="none" stroke="black" cx="626" cy="-18" rx="64.15" ry="18"/>
<text xml:space="preserve" text-anchor="middle" x="626" y="-12.95" font-family="Times,serif" font-size="14.00">&lt;project&gt;&#45;dev</text>
</g>
<!-- Resource3 -->
<g id="node2" class="node">
<title>Resource3</title>
<ellipse fill="none" stroke="black" cx="425" cy="-376" rx="173.67" ry="18"/>
<text xml:space="preserve" text-anchor="middle" x="425" y="-370.95" font-family="Times,serif" font-size="14.00">dev&#45;&lt;project&gt;&#45;client&#45;bucket&#45;123456789012</text>
</g>
<!-- Resource3&#45;&gt;Resource0 -->
<g id="edge1" class="edge">
<title>Resource3&#45;&gt;Resource0</title>
<path fill="none" stroke="#aa6639" d="M256.72,-371.24C138,-363.84 0,-343.42 0,-288.5 0,-288.5 0,-288.5 0,-90 0,-35.17 384.06,-22.67 550.53,-19.83"/>
<polygon fill="#aa6639" stroke="#aa6639" points="550.2,-23.34 560.14,-19.68 550.09,-16.34 550.2,-23.34"/>
</g>
<!-- Resource4 -->
<g id="node3" class="node">
<title>Resource4</title>
<ellipse fill="none" stroke="black" cx="256" cy="-287.5" rx="189.54" ry="18"/>
<text xml:space="preserve" text-anchor="middle" x="256" y="-282.45" font-family="Times,serif" font-size="14.00">dev&#45;&lt;project&gt;&#45;client&#45;bucket&#45;123456789012&#45;oac</text>
</g>
<!-- Resource3&#45;&gt;Resource4 -->
<g id="edge2" class="edge">
<title>Resource3&#45;&gt;Resource4</title>
<path fill="none" stroke="#246c60" d="M391.61,-357.91C365.31,-344.45 328.42,-325.57 299.76,-310.9"/>
<polygon fill="#246c60" stroke="#246c60" points="301.45,-307.83 290.96,-306.39 298.26,-314.06 301.45,-307.83"/>
<text xml:space="preserve" text-anchor="middle" x="370.64" y="-326.7" font-family="Times,serif" font-size="14.00">name</text>
</g>
<!-- Resource5 -->
<g id="node4" class="node">
<title>Resource5</title>
<ellipse fill="none" stroke="black" cx="979" cy="-233.5" rx="287.81" ry="18"/>
<text xml:space="preserve" text-anchor="middle" x="979" y="-228.45" font-family="Times,serif" font-size="14.00">dev&#45;&lt;project&gt;&#45;client&#45;bucket&#45;123456789012&#45;synced&#45;folder&#45;sync&#45;command</text>
</g>
<!-- Resource3&#45;&gt;Resource5 -->
<g id="edge3" class="edge">
<title>Resource3&#45;&gt;Resource5</title>
<path fill="none" stroke="#246c60" d="M554.44,-363.64C597.9,-358.31 646.4,-350.7 690,-340 776.5,-318.77 872.93,-280.44 929.66,-256.29"/>
<polygon fill="#246c60" stroke="#246c60" points="930.91,-259.56 938.72,-252.4 928.15,-253.12 930.91,-259.56"/>
<text xml:space="preserve" text-anchor="middle" x="805.57" y="-326.7" font-family="Times,serif" font-size="14.00">create, delete, update</text>
</g>
<!-- Resource6 -->
<g id="node5" class="node">
<title>Resource6</title>
<ellipse fill="none" stroke="black" cx="881" cy="-91" rx="227.41" ry="18"/>
<text xml:space="preserve" text-anchor="middle" x="881" y="-85.95" font-family="Times,serif" font-size="14.00">dev&#45;&lt;project&gt;&#45;client&#45;bucket&#45;123456789012&#45;synced&#45;folder</text>
</g>
<!-- Resource3&#45;&gt;Resource6 -->
<g id="edge4" class="edge">
<title>Resource3&#45;&gt;Resource6</title>
<path fill="none" stroke="#246c60" d="M507.58,-359.73C547.23,-349.35 593.68,-332.45 629,-305.5 667.42,-276.19 655.46,-249.3 690,-215.5 733.84,-172.6 794.8,-136.29 835.96,-114.37"/>
<polygon fill="#246c60" stroke="#246c60" points="837.41,-117.56 844.64,-109.81 834.16,-111.36 837.41,-117.56"/>
</g>
<!-- Resource7 -->
<g id="node6" class="node">
<title>Resource7</title>
<ellipse fill="none" stroke="black" cx="454" cy="-179.5" rx="109.7" ry="18"/>
<text xml:space="preserve" text-anchor="middle" x="454" y="-174.45" font-family="Times,serif" font-size="14.00">dev&#45;&lt;project&gt;&#45;distribution</text>
</g>
<!-- Resource3&#45;&gt;Resource7 -->
<g id="edge5" class="edge">
<title>Resource3&#45;&gt;Resource7</title>
<path fill="none" stroke="#246c60" d="M434.85,-357.66C442.03,-343.98 451.14,-324.16 455,-305.5 461.72,-272.99 460.05,-234.7 457.62,-209.15"/>
<polygon fill="#246c60" stroke="#246c60" points="461.1,-208.78 456.56,-199.21 454.14,-209.53 461.1,-208.78"/>
<text xml:space="preserve" text-anchor="middle" x="542.19" y="-282.45" font-family="Times,serif" font-size="14.00">origins, defaultCacheBehavior</text>
</g>
<!-- Resource8 -->
<g id="node7" class="node">
<title>Resource8</title>
<ellipse fill="none" stroke="black" cx="398" cy="-91" rx="199.78" ry="18"/>
<text xml:space="preserve" text-anchor="middle" x="398" y="-85.95" font-family="Times,serif" font-size="14.00">dev&#45;&lt;project&gt;&#45;client&#45;bucket&#45;123456789012&#45;policy</text>
</g>
<!-- Resource3&#45;&gt;Resource8 -->
<g id="edge6" class="edge">
<title>Resource3&#45;&gt;Resource8</title>
<path fill="none" stroke="#246c60" d="M278.3,-366.09C188.44,-357.22 85.37,-339.73 57,-305.5 -24.12,-207.62 182.47,-141 308.67,-110.67"/>
<polygon fill="#246c60" stroke="#246c60" points="309.47,-114.07 318.4,-108.37 307.86,-107.26 309.47,-114.07"/>
<text xml:space="preserve" text-anchor="middle" x="97.21" y="-228.45" font-family="Times,serif" font-size="14.00">bucket, policy</text>
</g>
<!-- Resource4&#45;&gt;Resource0 -->
<g id="edge9" class="edge">
<title>Resource4&#45;&gt;Resource0</title>
<path fill="none" stroke="#aa6639" d="M240.89,-269.27C208.08,-229.75 137.28,-131.5 189,-73 212.58,-46.33 433.27,-29.88 551.69,-22.9"/>
<polygon fill="#aa6639" stroke="#aa6639" points="551.88,-26.39 561.66,-22.32 551.48,-19.4 551.88,-26.39"/>
</g>
<!-- Resource4&#45;&gt;Resource7 -->
<g id="edge10" class="edge">
<title>Resource4&#45;&gt;Resource7</title>
<path fill="none" stroke="#246c60" d="M287.81,-269.47C321.79,-251.28 375.75,-222.39 412.91,-202.5"/>
<polygon fill="#246c60" stroke="#246c60" points="414.42,-205.66 421.59,-197.85 411.12,-199.49 414.42,-205.66"/>
<text xml:space="preserve" text-anchor="middle" x="403.05" y="-228.45" font-family="Times,serif" font-size="14.00">origins</text>
</g>
<!-- Resource5&#45;&gt;Resource6 -->
<g id="edge11" class="edge">
<title>Resource5&#45;&gt;Resource6</title>
<path fill="none" stroke="#aa6639" d="M938.41,-215.25C930.49,-210.43 922.84,-204.54 917,-197.5 898.58,-175.31 889.4,-143.2 884.95,-120.25"/>
<polygon fill="#aa6639" stroke="#aa6639" points="888.45,-119.92 883.29,-110.67 881.55,-121.12 888.45,-119.92"/>
</g>
<!-- Resource6&#45;&gt;Resource0 -->
<g id="edge14" class="edge">
<title>Resource6&#45;&gt;Resource0</title>
<path fill="none" stroke="#aa6639" d="M820.57,-73.17C778.34,-61.42 722.39,-45.84 681.33,-34.41"/>
<polygon fill="#aa6639" stroke="#aa6639" points="682.47,-31.09 671.9,-31.78 680.59,-37.83 682.47,-31.09"/>
</g>
<!-- Resource7&#45;&gt;Resource0 -->
<g id="edge15" class="edge">
<title>Resource7&#45;&gt;Resource0</title>
<path fill="none" stroke="#aa6639" d="M516.79,-164.38C548.34,-154.13 584.54,-136.99 607,-109 620.84,-91.75 625.27,-66.83 626.41,-47.59"/>
<polygon fill="#aa6639" stroke="#aa6639" points="629.91,-47.79 626.71,-37.69 622.91,-47.58 629.91,-47.79"/>
</g>
<!-- Resource7&#45;&gt;Resource8 -->
<g id="edge16" class="edge">
<title>Resource7&#45;&gt;Resource8</title>
<path fill="none" stroke="#246c60" d="M442.94,-161.41C435.09,-149.29 424.39,-132.77 415.41,-118.89"/>
<polygon fill="#246c60" stroke="#246c60" points="418.43,-117.11 410.06,-110.62 412.55,-120.92 418.43,-117.11"/>
<text xml:space="preserve" text-anchor="middle" x="447.89" y="-130.2" font-family="Times,serif" font-size="14.00">policy</text>
</g>
<!-- Resource8&#45;&gt;Resource0 -->
<g id="edge17" class="edge">
<title>Resource8&#45;&gt;Resource0</title>
<path fill="none" stroke="#aa6639" d="M451.74,-73.26C488.49,-61.82 536.96,-46.73 573.45,-35.36"/>
<polygon fill="#aa6639" stroke="#aa6639" points="574.41,-38.73 582.92,-32.42 572.33,-32.05 574.41,-38.73"/>
</g>
<!-- Resource9 -->
<g id="node8" class="node">
<title>Resource9</title>
<ellipse fill="none" stroke="black" cx="1122" cy="-179.5" rx="195.68" ry="18"/>
<text xml:space="preserve" text-anchor="middle" x="1122" y="-174.45" font-family="Times,serif" font-size="14.00">dev&#45;&lt;project&gt;&#45;client&#45;bucket&#45;123456789012&#45;build</text>
</g>
<!-- Resource9&#45;&gt;Resource0 -->
<g id="edge7" class="edge">
<title>Resource9&#45;&gt;Resource0</title>
<path fill="none" stroke="#aa6639" d="M1127.21,-161.32C1133.11,-138.03 1139.23,-96.65 1117,-73 1089.03,-43.24 830.8,-27.87 700.49,-21.95"/>
<polygon fill="#aa6639" stroke="#aa6639" points="700.71,-18.46 690.56,-21.51 700.39,-25.45 700.71,-18.46"/>
</g>
<!-- Resource9&#45;&gt;Resource6 -->
<g id="edge8" class="edge">
<title>Resource9&#45;&gt;Resource6</title>
<path fill="none" stroke="#246c60" d="M1074.96,-161.62C1036.11,-147.67 980.77,-127.81 939.14,-112.87"/>
<polygon fill="#246c60" stroke="#246c60" points="940.35,-109.58 929.76,-109.5 937.99,-116.17 940.35,-109.58"/>
</g>
<!-- Resource11 -->
<g id="node9" class="node">
<title>Resource11</title>
<ellipse fill="none" stroke="black" cx="1318" cy="-287.5" rx="112.26" ry="18"/>
<text xml:space="preserve" text-anchor="middle" x="1318" y="-282.45" font-family="Times,serif" font-size="14.00">organization/&lt;project&gt;/dev</text>
</g>
<!-- Resource11&#45;&gt;Resource0 -->
<g id="edge13" class="edge">
<title>Resource11&#45;&gt;Resource0</title>
<path fill="none" stroke="#aa6639" d="M1326.47,-269.09C1328.73,-263.6 1330.86,-257.41 1332,-251.5 1339.58,-212.16 1350.04,-194.28 1327,-161.5 1273.67,-85.61 1224.55,-106.34 1138,-73 1111.11,-62.64 1104.32,-59.37 1076,-54 946.01,-29.34 791.73,-21.98 701.75,-19.83"/>
<polygon fill="#aa6639" stroke="#aa6639" points="701.89,-16.33 691.81,-19.61 701.73,-23.33 701.89,-16.33"/>
</g>
<!-- Resource11&#45;&gt;Resource9 -->
<g id="edge12" class="edge">
<title>Resource11&#45;&gt;Resource9</title>
<path fill="none" stroke="#246c60" d="M1304.07,-269.31C1299.69,-263.71 1294.91,-257.42 1290.75,-251.5 1279.87,-236.01 1283.39,-226.52 1268,-215.5 1258.68,-208.83 1248.26,-203.42 1237.39,-199.03"/>
<polygon fill="#246c60" stroke="#246c60" points="1238.86,-195.85 1228.27,-195.66 1236.43,-202.41 1238.86,-195.85"/>
<text xml:space="preserve" text-anchor="middle" x="1311.38" y="-228.45" font-family="Times,serif" font-size="14.00">triggers</text>
</g>
</g>
</svg>
