<?xml version="1.0" encoding="UTF-8" standalone="no"?>
<!DOCTYPE svg PUBLIC "-//W3C//DTD SVG 1.1//EN"
 "http://www.w3.org/Graphics/SVG/1.1/DTD/svg11.dtd">
<!-- Generated by graphviz version 13.0.1 (20250615.1724)
 -->
<!-- Pages: 1 -->
<svg width="3772pt" height="560pt"
 viewBox="0.00 0.00 3772.00 560.00" xmlns="http://www.w3.org/2000/svg" xmlns:xlink="http://www.w3.org/1999/xlink">
<g id="graph0" class="graph" transform="scale(1 1) rotate(0) translate(4 555.5)">
<polygon fill="white" stroke="none" points="-4,4 -4,-555.5 3768.27,-555.5 3768.27,4 -4,4"/>
<!-- Resource0 -->
<g id="node1" class="node">
<title>Resource0</title>
<ellipse fill="none" stroke="black" cx="544.09" cy="-268" rx="152.69" ry="18"/>
<text xml:space="preserve" text-anchor="middle" x="544.09" y="-262.95" font-family="Times,serif" font-size="14.00">dev&#45;&lt;project&gt;&#45;viewer&#45;request&#45;lambda</text>
</g>
<!-- Resource1 -->
<g id="node2" class="node">
<title>Resource1</title>
<ellipse fill="none" stroke="black" cx="2031.09" cy="-18" rx="64.15" ry="18"/>
<text xml:space="preserve" text-anchor="middle" x="2031.09" y="-12.95" font-family="Times,serif" font-size="14.00">&lt;project&gt;&#45;dev</text>
</g>
<!-- Resource0&#45;&gt;Resource1 -->
<g id="edge1" class="edge">
<title>Resource0&#45;&gt;Resource1</title>
<path fill="none" stroke="#aa6639" d="M551.36,-249.54C570.26,-206.76 625.46,-97.09 711.09,-54 766.86,-25.94 1683.78,-20.29 1955.68,-19.23"/>
<polygon fill="#aa6639" stroke="#aa6639" points="1955.49,-22.73 1965.48,-19.19 1955.46,-15.73 1955.49,-22.73"/>
</g>
<!-- Resource2 -->
<g id="node3" class="node">
<title>Resource2</title>
<ellipse fill="none" stroke="black" cx="1378.09" cy="-179.5" rx="109.7" ry="18"/>
<text xml:space="preserve" text-anchor="middle" x="1378.09" y="-174.45" font-family="Times,serif" font-size="14.00">dev&#45;&lt;project&gt;&#45;distribution</text>
</g>
<!-- Resource0&#45;&gt;Resource2 -->
<g id="edge2" class="edge">
<title>Resource0&#45;&gt;Resource2</title>
<path fill="none" stroke="#246c60" d="M662.17,-256.27C719.15,-250.39 788.37,-242.2 850.09,-232 884.19,-226.36 891.89,-220.51 926.09,-215.5 1039.35,-198.9 1169.8,-189.87 1261.36,-185.16"/>
<polygon fill="#246c60" stroke="#246c60" points="1261.28,-188.67 1271.1,-184.67 1260.93,-181.67 1261.28,-188.67"/>
<text xml:space="preserve" text-anchor="middle" x="1055.09" y="-218.7" font-family="Times,serif" font-size="14.00">orderedCacheBehaviors, defaultCacheBehavior</text>
</g>
<!-- Resource2&#45;&gt;Resource1 -->
<g id="edge13" class="edge">
<title>Resource2&#45;&gt;Resource1</title>
<path fill="none" stroke="#aa6639" d="M1413.01,-162.03C1464.12,-138.62 1562.83,-96 1651.09,-73 1756.03,-45.65 1881.12,-31.25 1958.33,-24.39"/>
<polygon fill="#aa6639" stroke="#aa6639" points="1958.2,-27.91 1967.86,-23.56 1957.59,-20.94 1958.2,-27.91"/>
</g>
<!-- Resource8 -->
<g id="node6" class="node">
<title>Resource8</title>
<ellipse fill="none" stroke="black" cx="1860.09" cy="-91" rx="199.78" ry="18"/>
<text xml:space="preserve" text-anchor="middle" x="1860.09" y="-85.95" font-family="Times,serif" font-size="14.00">dev&#45;&lt;project&gt;&#45;client&#45;bucket&#45;123456789012&#45;policy</text>
</g>
<!-- Resource2&#45;&gt;Resource8 -->
<g id="edge12" class="edge">
<title>Resource2&#45;&gt;Resource8</title>
<path fill="none" stroke="#246c60" d="M1450.25,-165.55C1533.15,-150.67 1669.62,-126.18 1762.09,-109.59"/>
<polygon fill="#246c60" stroke="#246c60" points="1762.42,-113.08 1771.65,-107.87 1761.19,-106.19 1762.42,-113.08"/>
<text xml:space="preserve" text-anchor="middle" x="1679.14" y="-130.2" font-family="Times,serif" font-size="14.00">policy</text>
</g>
<!-- Resource15 -->
<g id="node12" class="node">
<title>Resource15</title>
<ellipse fill="none" stroke="black" cx="1082.09" cy="-91" rx="222.81" ry="18"/>
<text xml:space="preserve" text-anchor="middle" x="1082.09" y="-85.95" font-family="Times,serif" font-size="14.00">dev&#45;&lt;project&gt;&#45;api&#45;lambda&#45;cloudfront&#45;invoke&#45;permission</text>
</g>
<!-- Resource2&#45;&gt;Resource15 -->
<g id="edge14" class="edge">
<title>Resource2&#45;&gt;Resource15</title>
<path fill="none" stroke="#246c60" d="M1325.85,-163.23C1277.02,-148.96 1203.81,-127.57 1150.37,-111.95"/>
<polygon fill="#246c60" stroke="#246c60" points="1151.65,-108.68 1141.07,-109.24 1149.69,-115.4 1151.65,-108.68"/>
<text xml:space="preserve" text-anchor="middle" x="1284.73" y="-130.2" font-family="Times,serif" font-size="14.00">sourceArn</text>
</g>
<!-- Resource6 -->
<g id="node4" class="node">
<title>Resource6</title>
<ellipse fill="none" stroke="black" cx="3073.09" cy="-268" rx="195.68" ry="18"/>
<text xml:space="preserve" text-anchor="middle" x="3073.09" y="-262.95" font-family="Times,serif" font-size="14.00">dev&#45;&lt;project&gt;&#45;client&#45;bucket&#45;123456789012&#45;build</text>
</g>
<!-- Resource6&#45;&gt;Resource1 -->
<g id="edge4" class="edge">
<title>Resource6&#45;&gt;Resource1</title>
<path fill="none" stroke="#aa6639" d="M3027.33,-250.07C2907.2,-205.67 2588.72,-88.23 2540.09,-73 2508.51,-63.11 2500.72,-59.57 2468.09,-54 2342.26,-32.53 2193.73,-24.17 2106.26,-20.96"/>
<polygon fill="#aa6639" stroke="#aa6639" points="2106.48,-17.46 2096.37,-20.61 2106.24,-24.46 2106.48,-17.46"/>
</g>
<!-- Resource7 -->
<g id="node5" class="node">
<title>Resource7</title>
<ellipse fill="none" stroke="black" cx="2544.09" cy="-179.5" rx="227.41" ry="18"/>
<text xml:space="preserve" text-anchor="middle" x="2544.09" y="-174.45" font-family="Times,serif" font-size="14.00">dev&#45;&lt;project&gt;&#45;client&#45;bucket&#45;123456789012&#45;synced&#45;folder</text>
</g>
<!-- Resource6&#45;&gt;Resource7 -->
<g id="edge3" class="edge">
<title>Resource6&#45;&gt;Resource7</title>
<path fill="none" stroke="#246c60" d="M2979.73,-251.73C2887.86,-236.71 2747.72,-213.8 2651.32,-198.03"/>
<polygon fill="#246c60" stroke="#246c60" points="2652.01,-194.6 2641.58,-196.44 2650.88,-201.51 2652.01,-194.6"/>
</g>
<!-- Resource7&#45;&gt;Resource1 -->
<g id="edge44" class="edge">
<title>Resource7&#45;&gt;Resource1</title>
<path fill="none" stroke="#aa6639" d="M2544.82,-161.2C2544.78,-137.39 2540.8,-94.96 2515.09,-73 2484.55,-46.92 2232.7,-29.8 2104.89,-22.71"/>
<polygon fill="#aa6639" stroke="#aa6639" points="2105.36,-19.23 2095.18,-22.18 2104.98,-26.22 2105.36,-19.23"/>
</g>
<!-- Resource8&#45;&gt;Resource1 -->
<g id="edge5" class="edge">
<title>Resource8&#45;&gt;Resource1</title>
<path fill="none" stroke="#aa6639" d="M1901.05,-72.99C1926.58,-62.39 1959.46,-48.74 1985.78,-37.82"/>
<polygon fill="#aa6639" stroke="#aa6639" points="1986.95,-41.12 1994.84,-34.05 1984.26,-34.65 1986.95,-41.12"/>
</g>
<!-- Resource10 -->
<g id="node7" class="node">
<title>Resource10</title>
<ellipse fill="none" stroke="black" cx="170.09" cy="-356.5" rx="170.09" ry="18"/>
<text xml:space="preserve" text-anchor="middle" x="170.09" y="-351.45" font-family="Times,serif" font-size="14.00">dev&#45;&lt;project&gt;&#45;viewer&#45;request&#45;lambda&#45;role</text>
</g>
<!-- Resource10&#45;&gt;Resource0 -->
<g id="edge6" class="edge">
<title>Resource10&#45;&gt;Resource0</title>
<path fill="none" stroke="#246c60" d="M238.69,-339.63C302.91,-324.78 398.79,-302.61 465.94,-287.08"/>
<polygon fill="#246c60" stroke="#246c60" points="466.44,-290.55 475.4,-284.89 464.87,-283.73 466.44,-290.55"/>
<text xml:space="preserve" text-anchor="middle" x="401.09" y="-307.2" font-family="Times,serif" font-size="14.00">role</text>
</g>
<!-- Resource10&#45;&gt;Resource1 -->
<g id="edge7" class="edge">
<title>Resource10&#45;&gt;Resource1</title>
<path fill="none" stroke="#aa6639" d="M202.42,-338.45C225.72,-323.57 253.09,-299.59 253.09,-269 253.09,-269 253.09,-269 253.09,-90 253.09,-46.71 1616.92,-24.79 1955.65,-20.01"/>
<polygon fill="#aa6639" stroke="#aa6639" points="1955.56,-23.51 1965.51,-19.87 1955.46,-16.51 1955.56,-23.51"/>
</g>
<!-- Resource11 -->
<g id="node8" class="node">
<title>Resource11</title>
<ellipse fill="none" stroke="black" cx="3304.09" cy="-179.5" rx="189.54" ry="18"/>
<text xml:space="preserve" text-anchor="middle" x="3304.09" y="-174.45" font-family="Times,serif" font-size="14.00">dev&#45;&lt;project&gt;&#45;aurora&#45;dsql&#45;cluster&#45;access&#45;policy</text>
</g>
<!-- Resource11&#45;&gt;Resource1 -->
<g id="edge8" class="edge">
<title>Resource11&#45;&gt;Resource1</title>
<path fill="none" stroke="#aa6639" d="M3248.91,-161.91C3208.64,-149.13 3153.11,-130.13 3106.09,-109 3060.18,-88.37 3055.58,-67.5 3007.09,-54 2921.43,-30.16 2320.85,-21.89 2106.71,-19.68"/>
<polygon fill="#aa6639" stroke="#aa6639" points="2106.84,-16.18 2096.81,-19.58 2106.77,-23.18 2106.84,-16.18"/>
</g>
<!-- Resource12 -->
<g id="node9" class="node">
<title>Resource12</title>
<ellipse fill="none" stroke="black" cx="3304.09" cy="-91" rx="189.03" ry="18"/>
<text xml:space="preserve" text-anchor="middle" x="3304.09" y="-85.95" font-family="Times,serif" font-size="14.00">dev&#45;&lt;project&gt;&#45;api&#45;lambda&#45;dsql&#45;role&#45;attachment</text>
</g>
<!-- Resource11&#45;&gt;Resource12 -->
<g id="edge9" class="edge">
<title>Resource11&#45;&gt;Resource12</title>
<path fill="none" stroke="#246c60" d="M3304.09,-161.41C3304.09,-149.76 3304.09,-134.05 3304.09,-120.52"/>
<polygon fill="#246c60" stroke="#246c60" points="3307.59,-120.86 3304.09,-110.86 3300.59,-120.86 3307.59,-120.86"/>
<text xml:space="preserve" text-anchor="middle" x="3331.47" y="-130.2" font-family="Times,serif" font-size="14.00">policyArn</text>
</g>
<!-- Resource12&#45;&gt;Resource1 -->
<g id="edge20" class="edge">
<title>Resource12&#45;&gt;Resource1</title>
<path fill="none" stroke="#aa6639" d="M3222.96,-74.3C3181.06,-66.84 3129.02,-58.57 3082.09,-54 2892.61,-35.56 2314.31,-23.93 2106.48,-20.26"/>
<polygon fill="#aa6639" stroke="#aa6639" points="2106.67,-16.76 2096.61,-20.09 2106.54,-23.76 2106.67,-16.76"/>
</g>
<!-- Resource13 -->
<g id="node10" class="node">
<title>Resource13</title>
<ellipse fill="none" stroke="black" cx="919.09" cy="-445" rx="131.19" ry="18"/>
<text xml:space="preserve" text-anchor="middle" x="919.09" y="-439.95" font-family="Times,serif" font-size="14.00">dev&#45;&lt;project&gt;&#45;api&#45;lambda&#45;build</text>
</g>
<!-- Resource13&#45;&gt;Resource1 -->
<g id="edge10" class="edge">
<title>Resource13&#45;&gt;Resource1</title>
<path fill="none" stroke="#aa6639" d="M887.49,-427.3C832.52,-395.7 725.09,-321.57 725.09,-224.75 725.09,-224.75 725.09,-224.75 725.09,-90 725.09,-36.19 655.67,-73.06 903.09,-54 1298.49,-23.54 1773.8,-19.37 1955.47,-18.95"/>
<polygon fill="#aa6639" stroke="#aa6639" points="1955.25,-22.46 1965.24,-18.94 1955.23,-15.46 1955.25,-22.46"/>
</g>
<!-- Resource14 -->
<g id="node11" class="node">
<title>Resource14</title>
<ellipse fill="none" stroke="black" cx="1034.09" cy="-356.5" rx="109.19" ry="18"/>
<text xml:space="preserve" text-anchor="middle" x="1034.09" y="-351.45" font-family="Times,serif" font-size="14.00">dev&#45;&lt;project&gt;&#45;api&#45;lambda</text>
</g>
<!-- Resource13&#45;&gt;Resource14 -->
<g id="edge11" class="edge">
<title>Resource13&#45;&gt;Resource14</title>
<path fill="none" stroke="#246c60" d="M941.81,-426.91C959.14,-413.88 983.21,-395.77 1002.43,-381.32"/>
<polygon fill="#246c60" stroke="#246c60" points="1004.32,-384.27 1010.21,-375.46 1000.11,-378.68 1004.32,-384.27"/>
<text xml:space="preserve" text-anchor="middle" x="999.64" y="-395.7" font-family="Times,serif" font-size="14.00">code</text>
</g>
<!-- Resource14&#45;&gt;Resource1 -->
<g id="edge36" class="edge">
<title>Resource14&#45;&gt;Resource1</title>
<path fill="none" stroke="#aa6639" d="M949.09,-344.91C869.61,-332.57 763.09,-308.63 763.09,-269 763.09,-269 763.09,-269 763.09,-90 763.09,-29.92 1682.54,-20.68 1955.55,-19.26"/>
<polygon fill="#aa6639" stroke="#aa6639" points="1955.41,-22.76 1965.39,-19.21 1955.37,-15.76 1955.41,-22.76"/>
</g>
<!-- Resource14&#45;&gt;Resource2 -->
<g id="edge33" class="edge">
<title>Resource14&#45;&gt;Resource2</title>
<path fill="none" stroke="#246c60" d="M1126.14,-346.47C1208.26,-336.49 1320.16,-317.52 1351.09,-286 1371.05,-265.66 1376.87,-232.7 1378.27,-209.03"/>
<polygon fill="#246c60" stroke="#246c60" points="1381.77,-209.24 1378.61,-199.13 1374.77,-209 1381.77,-209.24"/>
<text xml:space="preserve" text-anchor="middle" x="1458.29" y="-262.95" font-family="Times,serif" font-size="14.00">origins, orderedCacheBehaviors</text>
</g>
<!-- Resource14&#45;&gt;Resource15 -->
<g id="edge35" class="edge">
<title>Resource14&#45;&gt;Resource15</title>
<path fill="none" stroke="#246c60" d="M962.78,-342.53C878.91,-323.88 756.4,-283.96 801.09,-215.5 838.81,-157.73 910.25,-126.8 971.66,-110.34"/>
<polygon fill="#246c60" stroke="#246c60" points="972.32,-113.79 981.14,-107.91 970.58,-107.01 972.32,-113.79"/>
<text xml:space="preserve" text-anchor="middle" x="823.59" y="-218.7" font-family="Times,serif" font-size="14.00">function</text>
</g>
<!-- Resource16 -->
<g id="node13" class="node">
<title>Resource16</title>
<ellipse fill="none" stroke="black" cx="1220.09" cy="-268" rx="122.49" ry="18"/>
<text xml:space="preserve" text-anchor="middle" x="1220.09" y="-262.95" font-family="Times,serif" font-size="14.00">dev&#45;&lt;project&gt;&#45;api&#45;lambda&#45;url</text>
</g>
<!-- Resource14&#45;&gt;Resource16 -->
<g id="edge34" class="edge">
<title>Resource14&#45;&gt;Resource16</title>
<path fill="none" stroke="#246c60" d="M1069.51,-339.03C1099.28,-325.18 1142.03,-305.3 1174.38,-290.26"/>
<polygon fill="#246c60" stroke="#246c60" points="1175.52,-293.59 1183.11,-286.2 1172.57,-287.24 1175.52,-293.59"/>
<text xml:space="preserve" text-anchor="middle" x="1182.75" y="-307.2" font-family="Times,serif" font-size="14.00">functionName</text>
</g>
<!-- Resource24 -->
<g id="node20" class="node">
<title>Resource24</title>
<ellipse fill="none" stroke="black" cx="954.09" cy="-268" rx="125.05" ry="18"/>
<text xml:space="preserve" text-anchor="middle" x="954.09" y="-262.95" font-family="Times,serif" font-size="14.00">dev&#45;&lt;project&gt;&#45;api&#45;lambda&#45;oac</text>
</g>
<!-- Resource14&#45;&gt;Resource24 -->
<g id="edge37" class="edge">
<title>Resource14&#45;&gt;Resource24</title>
<path fill="none" stroke="#246c60" d="M1018.29,-338.41C1006.67,-325.85 990.7,-308.58 977.59,-294.41"/>
<polygon fill="#246c60" stroke="#246c60" points="980.25,-292.13 970.89,-287.17 975.11,-296.88 980.25,-292.13"/>
<text xml:space="preserve" text-anchor="middle" x="1016.26" y="-307.2" font-family="Times,serif" font-size="14.00">name</text>
</g>
<!-- Resource15&#45;&gt;Resource1 -->
<g id="edge21" class="edge">
<title>Resource15&#45;&gt;Resource1</title>
<path fill="none" stroke="#aa6639" d="M1172.13,-74.12C1216.29,-66.9 1270.33,-58.89 1319.09,-54 1550.39,-30.81 1825.57,-22.81 1955.72,-20.19"/>
<polygon fill="#aa6639" stroke="#aa6639" points="1955.66,-23.69 1965.59,-20 1955.53,-16.69 1955.66,-23.69"/>
</g>
<!-- Resource16&#45;&gt;Resource1 -->
<g id="edge16" class="edge">
<title>Resource16&#45;&gt;Resource1</title>
<path fill="none" stroke="#aa6639" d="M1221.8,-249.88C1225.02,-226.67 1234.1,-185.37 1259.09,-161.5 1358.8,-66.27 1783.13,-32.56 1956.67,-22.61"/>
<polygon fill="#aa6639" stroke="#aa6639" points="1956.68,-26.11 1966.47,-22.06 1956.29,-19.12 1956.68,-26.11"/>
</g>
<!-- Resource16&#45;&gt;Resource2 -->
<g id="edge15" class="edge">
<title>Resource16&#45;&gt;Resource2</title>
<path fill="none" stroke="#246c60" d="M1263.57,-250.71C1276.55,-245.31 1290.64,-238.89 1303.09,-232 1314.26,-225.82 1316.09,-222.75 1326.59,-215.5 1332.12,-211.68 1338,-207.66 1343.73,-203.75"/>
<polygon fill="#246c60" stroke="#246c60" points="1345.6,-206.71 1351.9,-198.19 1341.67,-200.92 1345.6,-206.71"/>
<text xml:space="preserve" text-anchor="middle" x="1345.34" y="-218.7" font-family="Times,serif" font-size="14.00">origins</text>
</g>
<!-- Resource17 -->
<g id="node14" class="node">
<title>Resource17</title>
<ellipse fill="none" stroke="black" cx="2376.09" cy="-91" rx="130.17" ry="18"/>
<text xml:space="preserve" text-anchor="middle" x="2376.09" y="-85.95" font-family="Times,serif" font-size="14.00">dev&#45;&lt;project&gt;&#45;virginia&#45;provider</text>
</g>
<!-- Resource17&#45;&gt;Resource1 -->
<g id="edge17" class="edge">
<title>Resource17&#45;&gt;Resource1</title>
<path fill="none" stroke="#aa6639" d="M2318.16,-74.5C2291.97,-67.75 2260.58,-60.03 2232.09,-54 2187.46,-44.55 2136.87,-35.75 2097.6,-29.34"/>
<polygon fill="#aa6639" stroke="#aa6639" points="2098.25,-25.9 2087.82,-27.75 2097.13,-32.81 2098.25,-25.9"/>
</g>
<!-- Resource18 -->
<g id="node15" class="node">
<title>Resource18</title>
<ellipse fill="none" stroke="black" cx="1962.09" cy="-268" rx="189.54" ry="18"/>
<text xml:space="preserve" text-anchor="middle" x="1962.09" y="-262.95" font-family="Times,serif" font-size="14.00">dev&#45;&lt;project&gt;&#45;client&#45;bucket&#45;123456789012&#45;oac</text>
</g>
<!-- Resource18&#45;&gt;Resource1 -->
<g id="edge19" class="edge">
<title>Resource18&#45;&gt;Resource1</title>
<path fill="none" stroke="#aa6639" d="M1978.89,-249.92C2004.27,-222.79 2051.31,-166.96 2069.09,-109 2073.78,-93.7 2073.92,-88.25 2069.09,-73 2065.87,-62.84 2059.98,-52.93 2053.78,-44.44"/>
<polygon fill="#aa6639" stroke="#aa6639" points="2056.63,-42.4 2047.7,-36.7 2051.12,-46.73 2056.63,-42.4"/>
</g>
<!-- Resource18&#45;&gt;Resource2 -->
<g id="edge18" class="edge">
<title>Resource18&#45;&gt;Resource2</title>
<path fill="none" stroke="#246c60" d="M1862.69,-252.28C1752.27,-235.92 1575.51,-209.74 1468.74,-193.93"/>
<polygon fill="#246c60" stroke="#246c60" points="1469.26,-190.47 1458.85,-192.46 1468.23,-197.39 1469.26,-190.47"/>
<text xml:space="preserve" text-anchor="middle" x="1741.15" y="-218.7" font-family="Times,serif" font-size="14.00">origins</text>
</g>
<!-- Resource20 -->
<g id="node16" class="node">
<title>Resource20</title>
<ellipse fill="none" stroke="black" cx="1086.09" cy="-533.5" rx="112.26" ry="18"/>
<text xml:space="preserve" text-anchor="middle" x="1086.09" y="-528.45" font-family="Times,serif" font-size="14.00">organization/&lt;project&gt;/dev</text>
</g>
<!-- Resource20&#45;&gt;Resource1 -->
<g id="edge25" class="edge">
<title>Resource20&#45;&gt;Resource1</title>
<path fill="none" stroke="#aa6639" d="M1198.23,-531.63C1679.27,-527.62 3549.1,-509.11 3665.09,-463 3675.62,-458.81 3684.09,-457.33 3684.09,-446 3684.09,-446 3684.09,-446 3684.09,-90 3684.09,-37.29 4015.26,-82.79 3311.09,-54 2853.75,-35.3 2304.07,-24.04 2106.43,-20.35"/>
<polygon fill="#aa6639" stroke="#aa6639" points="2106.62,-16.85 2096.55,-20.16 2106.49,-23.85 2106.62,-16.85"/>
</g>
<!-- Resource20&#45;&gt;Resource6 -->
<g id="edge23" class="edge">
<title>Resource20&#45;&gt;Resource6</title>
<path fill="none" stroke="#246c60" d="M1195.56,-529.37C1437.74,-521.09 2036.51,-493.13 2530.09,-409 2706.08,-379 2908.56,-320.15 3009.27,-289.17"/>
<polygon fill="#246c60" stroke="#246c60" points="3010.2,-292.54 3018.72,-286.25 3008.13,-285.86 3010.2,-292.54"/>
<text xml:space="preserve" text-anchor="middle" x="2631.45" y="-395.7" font-family="Times,serif" font-size="14.00">triggers</text>
</g>
<!-- Resource20&#45;&gt;Resource13 -->
<g id="edge24" class="edge">
<title>Resource20&#45;&gt;Resource13</title>
<path fill="none" stroke="#246c60" d="M1053.89,-515.82C1027.64,-502.22 990.34,-482.9 961.63,-468.03"/>
<polygon fill="#246c60" stroke="#246c60" points="963.31,-464.96 952.82,-463.47 960.09,-471.18 963.31,-464.96"/>
<text xml:space="preserve" text-anchor="middle" x="1038.17" y="-484.2" font-family="Times,serif" font-size="14.00">triggers</text>
</g>
<!-- Resource20&#45;&gt;Resource14 -->
<g id="edge26" class="edge">
<title>Resource20&#45;&gt;Resource14</title>
<path fill="none" stroke="#246c60" d="M1082.19,-515.18C1077.34,-494.17 1068.53,-457.72 1059.09,-427 1054.85,-413.2 1049.51,-398.11 1044.85,-385.52"/>
<polygon fill="#246c60" stroke="#246c60" points="1048.14,-384.32 1041.35,-376.19 1041.59,-386.78 1048.14,-384.32"/>
<text xml:space="preserve" text-anchor="middle" x="1103.59" y="-439.95" font-family="Times,serif" font-size="14.00">environment</text>
</g>
<!-- Resource21 -->
<g id="node17" class="node">
<title>Resource21</title>
<ellipse fill="none" stroke="black" cx="533.09" cy="-356.5" rx="174.7" ry="18"/>
<text xml:space="preserve" text-anchor="middle" x="533.09" y="-351.45" font-family="Times,serif" font-size="14.00">dev&#45;&lt;project&gt;&#45;viewer&#45;request&#45;lambda&#45;build</text>
</g>
<!-- Resource20&#45;&gt;Resource21 -->
<g id="edge22" class="edge">
<title>Resource20&#45;&gt;Resource21</title>
<path fill="none" stroke="#246c60" d="M998.43,-521.91C926.91,-511.64 823.97,-493.12 737.84,-463 676.38,-441.51 610.27,-404.68 570.29,-380.71"/>
<polygon fill="#246c60" stroke="#246c60" points="572.13,-377.73 561.76,-375.55 568.5,-383.72 572.13,-377.73"/>
<text xml:space="preserve" text-anchor="middle" x="758.47" y="-439.95" font-family="Times,serif" font-size="14.00">triggers</text>
</g>
<!-- Resource21&#45;&gt;Resource0 -->
<g id="edge48" class="edge">
<title>Resource21&#45;&gt;Resource0</title>
<path fill="none" stroke="#246c60" d="M535.26,-338.41C536.75,-326.76 538.74,-311.05 540.46,-297.52"/>
<polygon fill="#246c60" stroke="#246c60" points="543.9,-298.21 541.69,-287.85 536.96,-297.33 543.9,-298.21"/>
<text xml:space="preserve" text-anchor="middle" x="552.33" y="-307.2" font-family="Times,serif" font-size="14.00">code</text>
</g>
<!-- Resource21&#45;&gt;Resource1 -->
<g id="edge47" class="edge">
<title>Resource21&#45;&gt;Resource1</title>
<path fill="none" stroke="#aa6639" d="M433.18,-341.41C408.32,-336.1 386.17,-329.18 377.09,-320.5 359.95,-304.11 363.09,-292.72 363.09,-269 363.09,-269 363.09,-269 363.09,-90 363.09,-13.14 630.39,-59.02 707.09,-54 1181.17,-22.97 1752.44,-19.23 1955.21,-18.94"/>
<polygon fill="#aa6639" stroke="#aa6639" points="1955.09,-22.44 1965.09,-18.93 1955.08,-15.44 1955.09,-22.44"/>
</g>
<!-- Resource22 -->
<g id="node18" class="node">
<title>Resource22</title>
<ellipse fill="none" stroke="black" cx="2199.09" cy="-356.5" rx="173.67" ry="18"/>
<text xml:space="preserve" text-anchor="middle" x="2199.09" y="-351.45" font-family="Times,serif" font-size="14.00">dev&#45;&lt;project&gt;&#45;client&#45;bucket&#45;123456789012</text>
</g>
<!-- Resource22&#45;&gt;Resource1 -->
<g id="edge31" class="edge">
<title>Resource22&#45;&gt;Resource1</title>
<path fill="none" stroke="#aa6639" d="M2205.21,-338.18C2210.76,-320.89 2218.09,-293.45 2218.09,-269 2218.09,-269 2218.09,-269 2218.09,-90 2218.09,-63.03 2149.27,-42.66 2095.13,-30.8"/>
<polygon fill="#aa6639" stroke="#aa6639" points="2096.17,-27.44 2085.66,-28.78 2094.71,-34.29 2096.17,-27.44"/>
</g>
<!-- Resource22&#45;&gt;Resource2 -->
<g id="edge29" class="edge">
<title>Resource22&#45;&gt;Resource2</title>
<path fill="none" stroke="#246c60" d="M2048.63,-347.24C1897.7,-337.33 1676.6,-317.93 1597.34,-286 1572.85,-276.13 1573.03,-263.06 1550.09,-250 1514.23,-229.58 1471.18,-212.19 1437.12,-199.91"/>
<polygon fill="#246c60" stroke="#246c60" points="1438.41,-196.66 1427.82,-196.62 1436.07,-203.26 1438.41,-196.66"/>
<text xml:space="preserve" text-anchor="middle" x="1680.22" y="-262.95" font-family="Times,serif" font-size="14.00">origins, defaultCacheBehavior</text>
</g>
<!-- Resource22&#45;&gt;Resource7 -->
<g id="edge27" class="edge">
<title>Resource22&#45;&gt;Resource7</title>
<path fill="none" stroke="#246c60" d="M2216.63,-338.33C2221.86,-332.85 2227.43,-326.61 2232.09,-320.5 2254.36,-291.32 2245.61,-271.86 2275.09,-250 2310.82,-223.51 2355.72,-207.08 2398.54,-196.91"/>
<polygon fill="#246c60" stroke="#246c60" points="2399.21,-200.35 2408.2,-194.73 2397.67,-193.52 2399.21,-200.35"/>
</g>
<!-- Resource22&#45;&gt;Resource8 -->
<g id="edge28" class="edge">
<title>Resource22&#45;&gt;Resource8</title>
<path fill="none" stroke="#246c60" d="M2196.81,-338.21C2193.01,-315.56 2183.47,-275.69 2161.09,-250 2159.91,-248.64 1986.04,-157.76 1903.13,-114.46"/>
<polygon fill="#246c60" stroke="#246c60" points="1904.83,-111.41 1894.35,-109.88 1901.59,-117.61 1904.83,-111.41"/>
<text xml:space="preserve" text-anchor="middle" x="2165.18" y="-218.7" font-family="Times,serif" font-size="14.00">policy, bucket</text>
</g>
<!-- Resource22&#45;&gt;Resource18 -->
<g id="edge30" class="edge">
<title>Resource22&#45;&gt;Resource18</title>
<path fill="none" stroke="#246c60" d="M2153.11,-338.72C2114.81,-324.74 2060.07,-304.76 2019,-289.77"/>
<polygon fill="#246c60" stroke="#246c60" points="2020.36,-286.54 2009.77,-286.4 2017.96,-293.12 2020.36,-286.54"/>
<text xml:space="preserve" text-anchor="middle" x="2116.82" y="-307.2" font-family="Times,serif" font-size="14.00">name</text>
</g>
<!-- Resource23 -->
<g id="node19" class="node">
<title>Resource23</title>
<ellipse fill="none" stroke="black" cx="2572.09" cy="-268" rx="287.81" ry="18"/>
<text xml:space="preserve" text-anchor="middle" x="2572.09" y="-262.95" font-family="Times,serif" font-size="14.00">dev&#45;&lt;project&gt;&#45;client&#45;bucket&#45;123456789012&#45;synced&#45;folder&#45;sync&#45;command</text>
</g>
<!-- Resource22&#45;&gt;Resource23 -->
<g id="edge32" class="edge">
<title>Resource22&#45;&gt;Resource23</title>
<path fill="none" stroke="#246c60" d="M2267.94,-339.53C2330.25,-325.08 2422.18,-303.76 2488.65,-288.35"/>
<polygon fill="#246c60" stroke="#246c60" points="2489.08,-291.84 2498.03,-286.17 2487.5,-285.02 2489.08,-291.84"/>
<text xml:space="preserve" text-anchor="middle" x="2476.75" y="-307.2" font-family="Times,serif" font-size="14.00">create, delete, update</text>
</g>
<!-- Resource23&#45;&gt;Resource7 -->
<g id="edge40" class="edge">
<title>Resource23&#45;&gt;Resource7</title>
<path fill="none" stroke="#aa6639" d="M2566.56,-249.91C2562.75,-238.14 2557.6,-222.23 2553.19,-208.61"/>
<polygon fill="#aa6639" stroke="#aa6639" points="2556.58,-207.73 2550.17,-199.29 2549.92,-209.88 2556.58,-207.73"/>
</g>
<!-- Resource24&#45;&gt;Resource1 -->
<g id="edge39" class="edge">
<title>Resource24&#45;&gt;Resource1</title>
<path fill="none" stroke="#aa6639" d="M900,-251.38C890.56,-246.51 881.67,-240.18 875.09,-232 830.27,-176.25 800.68,-124.73 850.09,-73 888.34,-32.96 1701.38,-22.05 1955.73,-19.61"/>
<polygon fill="#aa6639" stroke="#aa6639" points="1955.58,-23.12 1965.54,-19.52 1955.51,-16.12 1955.58,-23.12"/>
</g>
<!-- Resource24&#45;&gt;Resource2 -->
<g id="edge38" class="edge">
<title>Resource24&#45;&gt;Resource2</title>
<path fill="none" stroke="#246c60" d="M1047.06,-255.62C1090.17,-249.7 1141.96,-241.67 1188.09,-232 1231.63,-222.88 1280.01,-209.72 1317.05,-198.99"/>
<polygon fill="#246c60" stroke="#246c60" points="1317.6,-202.47 1326.22,-196.31 1315.64,-195.75 1317.6,-202.47"/>
<text xml:space="preserve" text-anchor="middle" x="1275.27" y="-218.7" font-family="Times,serif" font-size="14.00">origins</text>
</g>
<!-- Resource27 -->
<g id="node21" class="node">
<title>Resource27</title>
<ellipse fill="none" stroke="black" cx="3529.09" cy="-445" rx="126.59" ry="18"/>
<text xml:space="preserve" text-anchor="middle" x="3529.09" y="-439.95" font-family="Times,serif" font-size="14.00">dev&#45;&lt;project&gt;&#45;api&#45;lambda&#45;role</text>
</g>
<!-- Resource27&#45;&gt;Resource1 -->
<g id="edge43" class="edge">
<title>Resource27&#45;&gt;Resource1</title>
<path fill="none" stroke="#aa6639" d="M3580.41,-428.17C3611.85,-414.93 3646.09,-392.49 3646.09,-357.5 3646.09,-357.5 3646.09,-357.5 3646.09,-90 3646.09,-50.95 2424.75,-26.12 2106.29,-20.31"/>
<polygon fill="#aa6639" stroke="#aa6639" points="2106.47,-16.82 2096.41,-20.14 2106.35,-23.82 2106.47,-16.82"/>
</g>
<!-- Resource27&#45;&gt;Resource12 -->
<g id="edge41" class="edge">
<title>Resource27&#45;&gt;Resource12</title>
<path fill="none" stroke="#246c60" d="M3553.64,-427.15C3573.12,-411.59 3597.09,-386.54 3597.09,-357.5 3597.09,-357.5 3597.09,-357.5 3597.09,-178.5 3597.09,-142.09 3512.82,-119.86 3434.67,-107.06"/>
<polygon fill="#246c60" stroke="#246c60" points="3435.61,-103.67 3425.18,-105.56 3434.51,-110.58 3435.61,-103.67"/>
<text xml:space="preserve" text-anchor="middle" x="3607.59" y="-262.95" font-family="Times,serif" font-size="14.00">role</text>
</g>
<!-- Resource27&#45;&gt;Resource14 -->
<g id="edge42" class="edge">
<title>Resource27&#45;&gt;Resource14</title>
<path fill="none" stroke="#246c60" d="M3407.49,-439.78C2982.87,-425.06 1569.33,-376.06 1151.42,-361.57"/>
<polygon fill="#246c60" stroke="#246c60" points="1151.57,-358.07 1141.46,-361.22 1151.33,-365.07 1151.57,-358.07"/>
<text xml:space="preserve" text-anchor="middle" x="2515.56" y="-395.7" font-family="Times,serif" font-size="14.00">role</text>
</g>
<!-- Resource28 -->
<g id="node22" class="node">
<title>Resource28</title>
<ellipse fill="none" stroke="black" cx="3424.09" cy="-268" rx="136.82" ry="18"/>
<text xml:space="preserve" text-anchor="middle" x="3424.09" y="-262.95" font-family="Times,serif" font-size="14.00">dev&#45;&lt;project&gt;&#45;aurora&#45;dsql&#45;cluster</text>
</g>
<!-- Resource28&#45;&gt;Resource1 -->
<g id="edge45" class="edge">
<title>Resource28&#45;&gt;Resource1</title>
<path fill="none" stroke="#aa6639" d="M3353.32,-252.21C3288.59,-238.53 3190.23,-217.37 3105.09,-197.5 2829.65,-133.22 2766,-87.01 2485.09,-54 2351.58,-38.31 2195.12,-28.02 2105.11,-22.88"/>
<polygon fill="#aa6639" stroke="#aa6639" points="2105.36,-19.39 2095.18,-22.32 2104.96,-26.38 2105.36,-19.39"/>
</g>
<!-- Resource28&#45;&gt;Resource11 -->
<g id="edge46" class="edge">
<title>Resource28&#45;&gt;Resource11</title>
<path fill="none" stroke="#246c60" d="M3400.38,-249.91C3382.34,-236.9 3357.28,-218.84 3337.25,-204.4"/>
<polygon fill="#246c60" stroke="#246c60" points="3339.55,-201.74 3329.39,-198.74 3335.45,-207.42 3339.55,-201.74"/>
<text xml:space="preserve" text-anchor="middle" x="3391.71" y="-218.7" font-family="Times,serif" font-size="14.00">policy</text>
</g>
</g>
</svg>
