<?xml version="1.0" encoding="UTF-8" standalone="no"?>
<!DOCTYPE svg PUBLIC "-//W3C//DTD SVG 1.1//EN"
 "http://www.w3.org/Graphics/SVG/1.1/DTD/svg11.dtd">
<!-- Generated by graphviz version 13.0.1 (20250615.1724)
 -->
<!-- Pages: 1 -->
<svg width="2284pt" height="471pt"
 viewBox="0.00 0.00 2284.00 471.00" xmlns="http://www.w3.org/2000/svg" xmlns:xlink="http://www.w3.org/1999/xlink">
<g id="graph0" class="graph" transform="scale(1 1) rotate(0) translate(4 467)">
<polygon fill="white" stroke="none" points="-4,4 -4,-467 2280,-467 2280,4 -4,4"/>
<!-- Resource0 -->
<g id="node1" class="node">
<title>Resource0</title>
<ellipse fill="none" stroke="black" cx="1187" cy="-268" rx="189.54" ry="18"/>
<text xml:space="preserve" text-anchor="middle" x="1187" y="-262.95" font-family="Times,serif" font-size="14.00">dev&#45;&lt;project&gt;&#45;client&#45;bucket&#45;123456789012&#45;oac</text>
</g>
<!-- Resource1 -->
<g id="node2" class="node">
<title>Resource1</title>
<ellipse fill="none" stroke="black" cx="997" cy="-18" rx="64.15" ry="18"/>
<text xml:space="preserve" text-anchor="middle" x="997" y="-12.95" font-family="Times,serif" font-size="14.00">&lt;project&gt;&#45;dev</text>
</g>
<!-- Resource0&#45;&gt;Resource1 -->
<g id="edge1" class="edge">
<title>Resource0&#45;&gt;Resource1</title>
<path fill="none" stroke="#aa6639" d="M1145.97,-250.05C1121.07,-238.18 1089.96,-220.36 1068,-197.5 1027.16,-154.97 1008.87,-86.06 1001.46,-47.48"/>
<polygon fill="#aa6639" stroke="#aa6639" points="1004.93,-47.03 999.72,-37.81 998.04,-48.27 1004.93,-47.03"/>
</g>
<!-- Resource2 -->
<g id="node3" class="node">
<title>Resource2</title>
<ellipse fill="none" stroke="black" cx="1187" cy="-179.5" rx="109.7" ry="18"/>
<text xml:space="preserve" text-anchor="middle" x="1187" y="-174.45" font-family="Times,serif" font-size="14.00">dev&#45;&lt;project&gt;&#45;distribution</text>
</g>
<!-- Resource0&#45;&gt;Resource2 -->
<g id="edge2" class="edge">
<title>Resource0&#45;&gt;Resource2</title>
<path fill="none" stroke="#246c60" d="M1187,-249.91C1187,-238.26 1187,-222.55 1187,-209.02"/>
<polygon fill="#246c60" stroke="#246c60" points="1190.5,-209.36 1187,-199.36 1183.5,-209.36 1190.5,-209.36"/>
<text xml:space="preserve" text-anchor="middle" x="1205.75" y="-218.7" font-family="Times,serif" font-size="14.00">origins</text>
</g>
<!-- Resource2&#45;&gt;Resource1 -->
<g id="edge23" class="edge">
<title>Resource2&#45;&gt;Resource1</title>
<path fill="none" stroke="#aa6639" d="M1143.3,-162.56C1115.45,-150.84 1079.88,-132.82 1054,-109 1034.8,-91.33 1019.45,-65.8 1009.54,-46.44"/>
<polygon fill="#aa6639" stroke="#aa6639" points="1012.69,-44.92 1005.14,-37.49 1006.41,-48.01 1012.69,-44.92"/>
</g>
<!-- Resource11 -->
<g id="node11" class="node">
<title>Resource11</title>
<ellipse fill="none" stroke="black" cx="1263" cy="-91" rx="199.78" ry="18"/>
<text xml:space="preserve" text-anchor="middle" x="1263" y="-85.95" font-family="Times,serif" font-size="14.00">dev&#45;&lt;project&gt;&#45;client&#45;bucket&#45;123456789012&#45;policy</text>
</g>
<!-- Resource2&#45;&gt;Resource11 -->
<g id="edge22" class="edge">
<title>Resource2&#45;&gt;Resource11</title>
<path fill="none" stroke="#246c60" d="M1202.02,-161.41C1212.98,-148.93 1228.03,-131.8 1240.43,-117.68"/>
<polygon fill="#246c60" stroke="#246c60" points="1242.79,-120.31 1246.76,-110.49 1237.53,-115.69 1242.79,-120.31"/>
<text xml:space="preserve" text-anchor="middle" x="1248.68" y="-130.2" font-family="Times,serif" font-size="14.00">policy</text>
</g>
<!-- Resource3 -->
<g id="node4" class="node">
<title>Resource3</title>
<ellipse fill="none" stroke="black" cx="203" cy="-445" rx="112.26" ry="18"/>
<text xml:space="preserve" text-anchor="middle" x="203" y="-439.95" font-family="Times,serif" font-size="14.00">organization/&lt;project&gt;/dev</text>
</g>
<!-- Resource3&#45;&gt;Resource1 -->
<g id="edge4" class="edge">
<title>Resource3&#45;&gt;Resource1</title>
<path fill="none" stroke="#aa6639" d="M100.61,-437.36C50.16,-427.91 0,-406.25 0,-357.5 0,-357.5 0,-357.5 0,-90 0,-43.82 689.59,-25.34 921.75,-20.43"/>
<polygon fill="#aa6639" stroke="#aa6639" points="921.68,-23.93 931.6,-20.23 921.53,-16.94 921.68,-23.93"/>
</g>
<!-- Resource4 -->
<g id="node5" class="node">
<title>Resource4</title>
<ellipse fill="none" stroke="black" cx="784" cy="-268" rx="195.68" ry="18"/>
<text xml:space="preserve" text-anchor="middle" x="784" y="-262.95" font-family="Times,serif" font-size="14.00">dev&#45;&lt;project&gt;&#45;client&#45;bucket&#45;123456789012&#45;build</text>
</g>
<!-- Resource3&#45;&gt;Resource4 -->
<g id="edge3" class="edge">
<title>Resource3&#45;&gt;Resource4</title>
<path fill="none" stroke="#246c60" d="M314.92,-442.98C453.89,-439.49 680.51,-425.82 745,-374.5 768.37,-355.9 777.74,-321.86 781.49,-297.47"/>
<polygon fill="#246c60" stroke="#246c60" points="784.92,-298.25 782.73,-287.89 777.98,-297.36 784.92,-298.25"/>
<text xml:space="preserve" text-anchor="middle" x="790.65" y="-351.45" font-family="Times,serif" font-size="14.00">triggers</text>
</g>
<!-- Resource5 -->
<g id="node6" class="node">
<title>Resource5</title>
<ellipse fill="none" stroke="black" cx="203" cy="-356.5" rx="174.7" ry="18"/>
<text xml:space="preserve" text-anchor="middle" x="203" y="-351.45" font-family="Times,serif" font-size="14.00">dev&#45;&lt;project&gt;&#45;viewer&#45;request&#45;lambda&#45;build</text>
</g>
<!-- Resource3&#45;&gt;Resource5 -->
<g id="edge5" class="edge">
<title>Resource3&#45;&gt;Resource5</title>
<path fill="none" stroke="#246c60" d="M203,-426.91C203,-415.26 203,-399.55 203,-386.02"/>
<polygon fill="#246c60" stroke="#246c60" points="206.5,-386.36 203,-376.36 199.5,-386.36 206.5,-386.36"/>
<text xml:space="preserve" text-anchor="middle" x="223.62" y="-395.7" font-family="Times,serif" font-size="14.00">triggers</text>
</g>
<!-- Resource4&#45;&gt;Resource1 -->
<g id="edge24" class="edge">
<title>Resource4&#45;&gt;Resource1</title>
<path fill="none" stroke="#aa6639" d="M839.78,-250.47C850.54,-245.64 861.2,-239.56 870,-232 930.53,-179.99 969.99,-91.63 987.15,-46.82"/>
<polygon fill="#aa6639" stroke="#aa6639" points="990.38,-48.17 990.6,-37.58 983.83,-45.73 990.38,-48.17"/>
</g>
<!-- Resource10 -->
<g id="node10" class="node">
<title>Resource10</title>
<ellipse fill="none" stroke="black" cx="1734" cy="-179.5" rx="227.41" ry="18"/>
<text xml:space="preserve" text-anchor="middle" x="1734" y="-174.45" font-family="Times,serif" font-size="14.00">dev&#45;&lt;project&gt;&#45;client&#45;bucket&#45;123456789012&#45;synced&#45;folder</text>
</g>
<!-- Resource4&#45;&gt;Resource10 -->
<g id="edge25" class="edge">
<title>Resource4&#45;&gt;Resource10</title>
<path fill="none" stroke="#246c60" d="M924.73,-255.12C945.93,-253.37 967.54,-251.62 988,-250 1094.63,-241.56 1121.45,-241.42 1228,-232 1351.35,-221.1 1491.41,-206.69 1592.85,-195.88"/>
<polygon fill="#246c60" stroke="#246c60" points="1593.02,-199.38 1602.59,-194.84 1592.27,-192.42 1593.02,-199.38"/>
</g>
<!-- Resource5&#45;&gt;Resource1 -->
<g id="edge9" class="edge">
<title>Resource5&#45;&gt;Resource1</title>
<path fill="none" stroke="#aa6639" d="M201.73,-338.28C200.56,-320.83 199,-293.05 199,-269 199,-269 199,-269 199,-90 199,-63.58 255.96,-59.69 291,-54 410.51,-34.59 765.2,-24.31 921.54,-20.61"/>
<polygon fill="#aa6639" stroke="#aa6639" points="921.47,-24.12 931.39,-20.39 921.31,-17.12 921.47,-24.12"/>
</g>
<!-- Resource7 -->
<g id="node8" class="node">
<title>Resource7</title>
<ellipse fill="none" stroke="black" cx="418" cy="-268" rx="152.69" ry="18"/>
<text xml:space="preserve" text-anchor="middle" x="418" y="-262.95" font-family="Times,serif" font-size="14.00">dev&#45;&lt;project&gt;&#45;viewer&#45;request&#45;lambda</text>
</g>
<!-- Resource5&#45;&gt;Resource7 -->
<g id="edge10" class="edge">
<title>Resource5&#45;&gt;Resource7</title>
<path fill="none" stroke="#246c60" d="M244.96,-338.62C279.56,-324.7 328.79,-304.89 365.9,-289.96"/>
<polygon fill="#246c60" stroke="#246c60" points="367.13,-293.24 375.1,-286.26 364.52,-286.74 367.13,-293.24"/>
<text xml:space="preserve" text-anchor="middle" x="342.51" y="-307.2" font-family="Times,serif" font-size="14.00">code</text>
</g>
<!-- Resource6 -->
<g id="node7" class="node">
<title>Resource6</title>
<ellipse fill="none" stroke="black" cx="566" cy="-356.5" rx="170.09" ry="18"/>
<text xml:space="preserve" text-anchor="middle" x="566" y="-351.45" font-family="Times,serif" font-size="14.00">dev&#45;&lt;project&gt;&#45;viewer&#45;request&#45;lambda&#45;role</text>
</g>
<!-- Resource6&#45;&gt;Resource1 -->
<g id="edge6" class="edge">
<title>Resource6&#45;&gt;Resource1</title>
<path fill="none" stroke="#aa6639" d="M442.41,-343.8C374.59,-336.7 301.36,-327.66 287,-320.5 258.45,-306.27 237,-300.9 237,-269 237,-269 237,-269 237,-90 237,-21.78 728.73,-17.37 921.12,-18.26"/>
<polygon fill="#aa6639" stroke="#aa6639" points="921,-21.76 931.02,-18.31 921.04,-14.76 921,-21.76"/>
</g>
<!-- Resource6&#45;&gt;Resource7 -->
<g id="edge7" class="edge">
<title>Resource6&#45;&gt;Resource7</title>
<path fill="none" stroke="#246c60" d="M536.76,-338.41C513.96,-325.08 482.07,-306.44 457.07,-291.84"/>
<polygon fill="#246c60" stroke="#246c60" points="458.89,-288.84 448.49,-286.82 455.35,-294.89 458.89,-288.84"/>
<text xml:space="preserve" text-anchor="middle" x="515.76" y="-307.2" font-family="Times,serif" font-size="14.00">role</text>
</g>
<!-- Resource7&#45;&gt;Resource1 -->
<g id="edge11" class="edge">
<title>Resource7&#45;&gt;Resource1</title>
<path fill="none" stroke="#aa6639" d="M457.34,-250.15C561.29,-205.63 842.77,-85.06 952.42,-38.09"/>
<polygon fill="#aa6639" stroke="#aa6639" points="953.59,-41.4 961.4,-34.25 950.83,-34.97 953.59,-41.4"/>
</g>
<!-- Resource7&#45;&gt;Resource2 -->
<g id="edge12" class="edge">
<title>Resource7&#45;&gt;Resource2</title>
<path fill="none" stroke="#246c60" d="M525.74,-254.88C675,-238.09 942.63,-207.99 1087.43,-191.7"/>
<polygon fill="#246c60" stroke="#246c60" points="1087.44,-195.22 1096.99,-190.63 1086.66,-188.27 1087.44,-195.22"/>
<text xml:space="preserve" text-anchor="middle" x="931.75" y="-218.7" font-family="Times,serif" font-size="14.00">defaultCacheBehavior</text>
</g>
<!-- Resource9 -->
<g id="node9" class="node">
<title>Resource9</title>
<ellipse fill="none" stroke="black" cx="1960" cy="-268" rx="287.81" ry="18"/>
<text xml:space="preserve" text-anchor="middle" x="1960" y="-262.95" font-family="Times,serif" font-size="14.00">dev&#45;&lt;project&gt;&#45;client&#45;bucket&#45;123456789012&#45;synced&#45;folder&#45;sync&#45;command</text>
</g>
<!-- Resource9&#45;&gt;Resource10 -->
<g id="edge8" class="edge">
<title>Resource9&#45;&gt;Resource10</title>
<path fill="none" stroke="#aa6639" d="M1915.08,-249.81C1878.84,-235.94 1827.7,-216.36 1789.01,-201.55"/>
<polygon fill="#aa6639" stroke="#aa6639" points="1790.45,-198.36 1779.86,-198.05 1787.95,-204.9 1790.45,-198.36"/>
</g>
<!-- Resource10&#45;&gt;Resource1 -->
<g id="edge21" class="edge">
<title>Resource10&#45;&gt;Resource1</title>
<path fill="none" stroke="#aa6639" d="M1666.89,-161.89C1624.39,-150.06 1568.99,-132.15 1523,-109 1498.22,-96.52 1497.93,-82.88 1472,-73 1400.58,-45.79 1186.07,-29.78 1071.32,-22.94"/>
<polygon fill="#aa6639" stroke="#aa6639" points="1071.56,-19.45 1061.38,-22.36 1071.15,-26.44 1071.56,-19.45"/>
</g>
<!-- Resource11&#45;&gt;Resource1 -->
<g id="edge13" class="edge">
<title>Resource11&#45;&gt;Resource1</title>
<path fill="none" stroke="#aa6639" d="M1200.97,-73.44C1156.34,-61.53 1096.64,-45.6 1053.37,-34.05"/>
<polygon fill="#aa6639" stroke="#aa6639" points="1054.49,-30.72 1043.92,-31.52 1052.68,-37.49 1054.49,-30.72"/>
</g>
<!-- Resource12 -->
<g id="node12" class="node">
<title>Resource12</title>
<ellipse fill="none" stroke="black" cx="1662" cy="-91" rx="130.17" ry="18"/>
<text xml:space="preserve" text-anchor="middle" x="1662" y="-85.95" font-family="Times,serif" font-size="14.00">dev&#45;&lt;project&gt;&#45;virginia&#45;provider</text>
</g>
<!-- Resource12&#45;&gt;Resource1 -->
<g id="edge14" class="edge">
<title>Resource12&#45;&gt;Resource1</title>
<path fill="none" stroke="#aa6639" d="M1608.45,-74.2C1581.54,-66.88 1548.29,-58.77 1518,-54 1360.84,-29.28 1174.33,-22 1072.55,-19.87"/>
<polygon fill="#aa6639" stroke="#aa6639" points="1072.75,-16.38 1062.68,-19.68 1072.61,-23.37 1072.75,-16.38"/>
</g>
<!-- Resource13 -->
<g id="node13" class="node">
<title>Resource13</title>
<ellipse fill="none" stroke="black" cx="1625" cy="-356.5" rx="173.67" ry="18"/>
<text xml:space="preserve" text-anchor="middle" x="1625" y="-351.45" font-family="Times,serif" font-size="14.00">dev&#45;&lt;project&gt;&#45;client&#45;bucket&#45;123456789012</text>
</g>
<!-- Resource13&#45;&gt;Resource0 -->
<g id="edge15" class="edge">
<title>Resource13&#45;&gt;Resource0</title>
<path fill="none" stroke="#246c60" d="M1507.16,-342.89C1463.53,-337.31 1413.79,-329.85 1369,-320.5 1328.83,-312.11 1284.5,-299.64 1249.65,-289.07"/>
<polygon fill="#246c60" stroke="#246c60" points="1250.72,-285.74 1240.14,-286.16 1248.68,-292.43 1250.72,-285.74"/>
<text xml:space="preserve" text-anchor="middle" x="1384" y="-307.2" font-family="Times,serif" font-size="14.00">name</text>
</g>
<!-- Resource13&#45;&gt;Resource1 -->
<g id="edge18" class="edge">
<title>Resource13&#45;&gt;Resource1</title>
<path fill="none" stroke="#aa6639" d="M1786.34,-349.65C1979.13,-340.45 2276,-318.28 2276,-269 2276,-269 2276,-269 2276,-90 2276,-29.37 1347.53,-20.51 1072.73,-19.22"/>
<polygon fill="#aa6639" stroke="#aa6639" points="1072.83,-15.72 1062.82,-19.18 1072.8,-22.72 1072.83,-15.72"/>
</g>
<!-- Resource13&#45;&gt;Resource2 -->
<g id="edge20" class="edge">
<title>Resource13&#45;&gt;Resource2</title>
<path fill="none" stroke="#246c60" d="M1559.86,-339.46C1519.86,-327.99 1468.51,-310.27 1427,-286 1406.07,-273.76 1406.94,-262.22 1386,-250 1346.13,-226.73 1297.24,-209.52 1257.89,-198.05"/>
<polygon fill="#246c60" stroke="#246c60" points="1259.09,-194.75 1248.52,-195.38 1257.18,-201.48 1259.09,-194.75"/>
<text xml:space="preserve" text-anchor="middle" x="1509.5" y="-262.95" font-family="Times,serif" font-size="14.00">defaultCacheBehavior, origins</text>
</g>
<!-- Resource13&#45;&gt;Resource9 -->
<g id="edge16" class="edge">
<title>Resource13&#45;&gt;Resource9</title>
<path fill="none" stroke="#246c60" d="M1687.62,-339.33C1743.06,-325.01 1824.16,-304.07 1883.45,-288.77"/>
<polygon fill="#246c60" stroke="#246c60" points="1883.98,-292.24 1892.79,-286.35 1882.23,-285.47 1883.98,-292.24"/>
<text xml:space="preserve" text-anchor="middle" x="1880.26" y="-307.2" font-family="Times,serif" font-size="14.00">create, delete, update</text>
</g>
<!-- Resource13&#45;&gt;Resource10 -->
<g id="edge19" class="edge">
<title>Resource13&#45;&gt;Resource10</title>
<path fill="none" stroke="#246c60" d="M1628.65,-338.36C1633.84,-316.56 1644.8,-278.34 1663,-250 1673.7,-233.33 1689.09,-217.63 1702.81,-205.39"/>
<polygon fill="#246c60" stroke="#246c60" points="1705.09,-208.04 1710.37,-198.85 1700.52,-202.74 1705.09,-208.04"/>
</g>
<!-- Resource13&#45;&gt;Resource11 -->
<g id="edge17" class="edge">
<title>Resource13&#45;&gt;Resource11</title>
<path fill="none" stroke="#246c60" d="M1623.78,-338.13C1621.32,-315.37 1613.97,-275.4 1592,-250 1581.99,-238.43 1399.8,-154.38 1310.95,-113.8"/>
<polygon fill="#246c60" stroke="#246c60" points="1312.52,-110.67 1301.97,-109.71 1309.61,-117.04 1312.52,-110.67"/>
<text xml:space="preserve" text-anchor="middle" x="1598.23" y="-218.7" font-family="Times,serif" font-size="14.00">policy, bucket</text>
</g>
</g>
</svg>
