<?xml version="1.0" encoding="UTF-8" standalone="no"?>
<!DOCTYPE svg PUBLIC "-//W3C//DTD SVG 1.1//EN"
 "http://www.w3.org/Graphics/SVG/1.1/DTD/svg11.dtd">
<!-- Generated by graphviz version 13.0.1 (20250615.1724)
 -->
<!-- Pages: 1 -->
<svg width="3471pt" height="560pt"
 viewBox="0.00 0.00 3471.00 560.00" xmlns="http://www.w3.org/2000/svg" xmlns:xlink="http://www.w3.org/1999/xlink">
<g id="graph0" class="graph" transform="scale(1 1) rotate(0) translate(4 555.5)">
<polygon fill="white" stroke="none" points="-4,4 -4,-555.5 3467.12,-555.5 3467.12,4 -4,4"/>
<!-- Resource0 -->
<g id="node1" class="node">
<title>Resource0</title>
<ellipse fill="none" stroke="black" cx="2200" cy="-179.5" rx="109.7" ry="18"/>
<text xml:space="preserve" text-anchor="middle" x="2200" y="-174.45" font-family="Times,serif" font-size="14.00">dev&#45;&lt;project&gt;&#45;distribution</text>
</g>
<!-- Resource1 -->
<g id="node2" class="node">
<title>Resource1</title>
<ellipse fill="none" stroke="black" cx="1770" cy="-91" rx="199.78" ry="18"/>
<text xml:space="preserve" text-anchor="middle" x="1770" y="-85.95" font-family="Times,serif" font-size="14.00">dev&#45;&lt;project&gt;&#45;client&#45;bucket&#45;123456789012&#45;policy</text>
</g>
<!-- Resource0&#45;&gt;Resource1 -->
<g id="edge1" class="edge">
<title>Resource0&#45;&gt;Resource1</title>
<path fill="none" stroke="#246c60" d="M2132.81,-164.98C2059.49,-150.24 1941.73,-126.54 1860.35,-110.18"/>
<polygon fill="#246c60" stroke="#246c60" points="1861.1,-106.76 1850.6,-108.21 1859.72,-113.62 1861.1,-106.76"/>
<text xml:space="preserve" text-anchor="middle" x="2040.39" y="-130.2" font-family="Times,serif" font-size="14.00">policy</text>
</g>
<!-- Resource2 -->
<g id="node3" class="node">
<title>Resource2</title>
<ellipse fill="none" stroke="black" cx="1770" cy="-18" rx="64.15" ry="18"/>
<text xml:space="preserve" text-anchor="middle" x="1770" y="-12.95" font-family="Times,serif" font-size="14.00">&lt;project&gt;&#45;dev</text>
</g>
<!-- Resource0&#45;&gt;Resource2 -->
<g id="edge2" class="edge">
<title>Resource0&#45;&gt;Resource2</title>
<path fill="none" stroke="#aa6639" d="M2290.6,-169.01C2379.34,-156.3 2494.31,-128.6 2443,-73 2403.17,-29.84 2013.22,-21.16 1845.77,-19.43"/>
<polygon fill="#aa6639" stroke="#aa6639" points="1845.89,-15.93 1835.86,-19.33 1845.82,-22.93 1845.89,-15.93"/>
</g>
<!-- Resource3 -->
<g id="node4" class="node">
<title>Resource3</title>
<ellipse fill="none" stroke="black" cx="2211" cy="-91" rx="222.81" ry="18"/>
<text xml:space="preserve" text-anchor="middle" x="2211" y="-85.95" font-family="Times,serif" font-size="14.00">dev&#45;&lt;project&gt;&#45;api&#45;lambda&#45;cloudfront&#45;invoke&#45;permission</text>
</g>
<!-- Resource0&#45;&gt;Resource3 -->
<g id="edge3" class="edge">
<title>Resource0&#45;&gt;Resource3</title>
<path fill="none" stroke="#246c60" d="M2202.17,-161.41C2203.66,-149.76 2205.65,-134.05 2207.37,-120.52"/>
<polygon fill="#246c60" stroke="#246c60" points="2210.81,-121.21 2208.6,-110.85 2203.87,-120.33 2210.81,-121.21"/>
<text xml:space="preserve" text-anchor="middle" x="2234.61" y="-130.2" font-family="Times,serif" font-size="14.00">sourceArn</text>
</g>
<!-- Resource1&#45;&gt;Resource2 -->
<g id="edge35" class="edge">
<title>Resource1&#45;&gt;Resource2</title>
<path fill="none" stroke="#aa6639" d="M1770,-72.81C1770,-65.23 1770,-56.1 1770,-47.54"/>
<polygon fill="#aa6639" stroke="#aa6639" points="1773.5,-47.54 1770,-37.54 1766.5,-47.54 1773.5,-47.54"/>
</g>
<!-- Resource3&#45;&gt;Resource2 -->
<g id="edge4" class="edge">
<title>Resource3&#45;&gt;Resource2</title>
<path fill="none" stroke="#aa6639" d="M2113.95,-74.37C2029.4,-60.76 1909.13,-41.4 1835.5,-29.55"/>
<polygon fill="#aa6639" stroke="#aa6639" points="1836.47,-26.16 1826.04,-28.02 1835.35,-33.07 1836.47,-26.16"/>
</g>
<!-- Resource5 -->
<g id="node5" class="node">
<title>Resource5</title>
<ellipse fill="none" stroke="black" cx="811" cy="-356.5" rx="170.09" ry="18"/>
<text xml:space="preserve" text-anchor="middle" x="811" y="-351.45" font-family="Times,serif" font-size="14.00">dev&#45;&lt;project&gt;&#45;viewer&#45;request&#45;lambda&#45;role</text>
</g>
<!-- Resource5&#45;&gt;Resource2 -->
<g id="edge6" class="edge">
<title>Resource5&#45;&gt;Resource2</title>
<path fill="none" stroke="#aa6639" d="M701.88,-342.35C626.04,-331.11 533.64,-312.5 505,-286 484.08,-266.64 486,-253.25 486,-224.75 486,-224.75 486,-224.75 486,-90 486,-29.1 1419.16,-20.43 1694.44,-19.2"/>
<polygon fill="#aa6639" stroke="#aa6639" points="1694.39,-22.7 1704.37,-19.16 1694.36,-15.7 1694.39,-22.7"/>
</g>
<!-- Resource6 -->
<g id="node6" class="node">
<title>Resource6</title>
<ellipse fill="none" stroke="black" cx="667" cy="-268" rx="152.69" ry="18"/>
<text xml:space="preserve" text-anchor="middle" x="667" y="-262.95" font-family="Times,serif" font-size="14.00">dev&#45;&lt;project&gt;&#45;viewer&#45;request&#45;lambda</text>
</g>
<!-- Resource5&#45;&gt;Resource6 -->
<g id="edge5" class="edge">
<title>Resource5&#45;&gt;Resource6</title>
<path fill="none" stroke="#246c60" d="M782.55,-338.41C760.36,-325.08 729.34,-306.44 705.02,-291.84"/>
<polygon fill="#246c60" stroke="#246c60" points="707.06,-288.98 696.69,-286.83 703.46,-294.98 707.06,-288.98"/>
<text xml:space="preserve" text-anchor="middle" x="762.4" y="-307.2" font-family="Times,serif" font-size="14.00">role</text>
</g>
<!-- Resource6&#45;&gt;Resource0 -->
<g id="edge19" class="edge">
<title>Resource6&#45;&gt;Resource0</title>
<path fill="none" stroke="#246c60" d="M774.32,-254.89C792.23,-253.09 810.63,-251.38 828,-250 1291.15,-213.1 1843.91,-192.12 2081.7,-184.19"/>
<polygon fill="#246c60" stroke="#246c60" points="2081.73,-187.69 2091.61,-183.86 2081.5,-180.69 2081.73,-187.69"/>
<text xml:space="preserve" text-anchor="middle" x="1484.12" y="-218.7" font-family="Times,serif" font-size="14.00">defaultCacheBehavior, orderedCacheBehaviors</text>
</g>
<!-- Resource6&#45;&gt;Resource2 -->
<g id="edge18" class="edge">
<title>Resource6&#45;&gt;Resource2</title>
<path fill="none" stroke="#aa6639" d="M701.02,-250.08C747.53,-227.46 833.97,-187.26 911,-161.5 1129.04,-88.59 1188.66,-80.81 1417,-54 1514.25,-42.58 1626.86,-31.85 1698.25,-25.35"/>
<polygon fill="#aa6639" stroke="#aa6639" points="1698.19,-28.87 1707.83,-24.48 1697.56,-21.9 1698.19,-28.87"/>
</g>
<!-- Resource7 -->
<g id="node7" class="node">
<title>Resource7</title>
<ellipse fill="none" stroke="black" cx="1258" cy="-445" rx="131.19" ry="18"/>
<text xml:space="preserve" text-anchor="middle" x="1258" y="-439.95" font-family="Times,serif" font-size="14.00">dev&#45;&lt;project&gt;&#45;api&#45;lambda&#45;build</text>
</g>
<!-- Resource7&#45;&gt;Resource2 -->
<g id="edge7" class="edge">
<title>Resource7&#45;&gt;Resource2</title>
<path fill="none" stroke="#aa6639" d="M1126.48,-444.95C940.38,-445 589.76,-440.31 293,-409 161.51,-395.13 0,-489.72 0,-357.5 0,-357.5 0,-357.5 0,-90 0,-46.92 1356.87,-24.85 1694.59,-20.02"/>
<polygon fill="#aa6639" stroke="#aa6639" points="1694.23,-23.53 1704.18,-19.89 1694.13,-16.53 1694.23,-23.53"/>
</g>
<!-- Resource8 -->
<g id="node8" class="node">
<title>Resource8</title>
<ellipse fill="none" stroke="black" cx="2288" cy="-356.5" rx="109.19" ry="18"/>
<text xml:space="preserve" text-anchor="middle" x="2288" y="-351.45" font-family="Times,serif" font-size="14.00">dev&#45;&lt;project&gt;&#45;api&#45;lambda</text>
</g>
<!-- Resource7&#45;&gt;Resource8 -->
<g id="edge8" class="edge">
<title>Resource7&#45;&gt;Resource8</title>
<path fill="none" stroke="#246c60" d="M1353.49,-432.28C1369.99,-430.4 1386.98,-428.57 1403,-427 1680.95,-399.8 2008.84,-376.28 2176.7,-364.87"/>
<polygon fill="#246c60" stroke="#246c60" points="2176.77,-368.37 2186.51,-364.2 2176.29,-361.39 2176.77,-368.37"/>
<text xml:space="preserve" text-anchor="middle" x="1803.93" y="-395.7" font-family="Times,serif" font-size="14.00">code</text>
</g>
<!-- Resource8&#45;&gt;Resource0 -->
<g id="edge30" class="edge">
<title>Resource8&#45;&gt;Resource0</title>
<path fill="none" stroke="#246c60" d="M2260.07,-338.86C2242.27,-326.64 2220.51,-308.3 2209.25,-286 2197.15,-262.04 2195.84,-231.11 2196.95,-208.94"/>
<polygon fill="#246c60" stroke="#246c60" points="2200.43,-209.36 2197.66,-199.13 2193.45,-208.86 2200.43,-209.36"/>
<text xml:space="preserve" text-anchor="middle" x="2296.62" y="-262.95" font-family="Times,serif" font-size="14.00">origins, orderedCacheBehaviors</text>
</g>
<!-- Resource8&#45;&gt;Resource2 -->
<g id="edge28" class="edge">
<title>Resource8&#45;&gt;Resource2</title>
<path fill="none" stroke="#aa6639" d="M2394.31,-351.95C2577.69,-344.39 2934,-322.78 2934,-269 2934,-269 2934,-269 2934,-90 2934,-35.29 2103.97,-22.35 1845.74,-19.65"/>
<polygon fill="#aa6639" stroke="#aa6639" points="1845.79,-16.15 1835.75,-19.55 1845.72,-23.15 1845.79,-16.15"/>
</g>
<!-- Resource8&#45;&gt;Resource3 -->
<g id="edge31" class="edge">
<title>Resource8&#45;&gt;Resource3</title>
<path fill="none" stroke="#246c60" d="M2197.52,-346.09C2114.76,-335.72 2000.28,-316.36 1967,-286 1948.41,-269.04 1953.82,-256.87 1950,-232 1944.19,-194.21 1959.33,-134.32 1967,-127 1977.59,-116.9 1999.95,-109.69 2027.03,-104.56"/>
<polygon fill="#246c60" stroke="#246c60" points="2027.32,-108.07 2036.56,-102.89 2026.1,-101.17 2027.32,-108.07"/>
<text xml:space="preserve" text-anchor="middle" x="1972.5" y="-218.7" font-family="Times,serif" font-size="14.00">function</text>
</g>
<!-- Resource11 -->
<g id="node11" class="node">
<title>Resource11</title>
<ellipse fill="none" stroke="black" cx="2784" cy="-268" rx="122.49" ry="18"/>
<text xml:space="preserve" text-anchor="middle" x="2784" y="-262.95" font-family="Times,serif" font-size="14.00">dev&#45;&lt;project&gt;&#45;api&#45;lambda&#45;url</text>
</g>
<!-- Resource8&#45;&gt;Resource11 -->
<g id="edge27" class="edge">
<title>Resource8&#45;&gt;Resource11</title>
<path fill="none" stroke="#246c60" d="M2361.19,-342.74C2450.36,-327.19 2600.87,-300.94 2696.19,-284.31"/>
<polygon fill="#246c60" stroke="#246c60" points="2696.51,-287.81 2705.76,-282.65 2695.3,-280.92 2696.51,-287.81"/>
<text xml:space="preserve" text-anchor="middle" x="2619.43" y="-307.2" font-family="Times,serif" font-size="14.00">functionName</text>
</g>
<!-- Resource18 -->
<g id="node17" class="node">
<title>Resource18</title>
<ellipse fill="none" stroke="black" cx="2518" cy="-268" rx="125.05" ry="18"/>
<text xml:space="preserve" text-anchor="middle" x="2518" y="-262.95" font-family="Times,serif" font-size="14.00">dev&#45;&lt;project&gt;&#45;api&#45;lambda&#45;oac</text>
</g>
<!-- Resource8&#45;&gt;Resource18 -->
<g id="edge29" class="edge">
<title>Resource8&#45;&gt;Resource18</title>
<path fill="none" stroke="#246c60" d="M2330.45,-339.53C2368.11,-325.37 2423.29,-304.62 2464.06,-289.29"/>
<polygon fill="#246c60" stroke="#246c60" points="2465.08,-292.64 2473.21,-285.85 2462.61,-286.09 2465.08,-292.64"/>
<text xml:space="preserve" text-anchor="middle" x="2438.6" y="-307.2" font-family="Times,serif" font-size="14.00">name</text>
</g>
<!-- Resource9 -->
<g id="node9" class="node">
<title>Resource9</title>
<ellipse fill="none" stroke="black" cx="224" cy="-268" rx="195.68" ry="18"/>
<text xml:space="preserve" text-anchor="middle" x="224" y="-262.95" font-family="Times,serif" font-size="14.00">dev&#45;&lt;project&gt;&#45;client&#45;bucket&#45;123456789012&#45;build</text>
</g>
<!-- Resource9&#45;&gt;Resource2 -->
<g id="edge9" class="edge">
<title>Resource9&#45;&gt;Resource2</title>
<path fill="none" stroke="#aa6639" d="M234.25,-249.74C260.8,-206.93 336.58,-96.27 434,-54 492,-28.84 1419.98,-21.15 1694.24,-19.42"/>
<polygon fill="#aa6639" stroke="#aa6639" points="1694.16,-22.92 1704.13,-19.36 1694.11,-15.92 1694.16,-22.92"/>
</g>
<!-- Resource10 -->
<g id="node10" class="node">
<title>Resource10</title>
<ellipse fill="none" stroke="black" cx="1147" cy="-179.5" rx="227.41" ry="18"/>
<text xml:space="preserve" text-anchor="middle" x="1147" y="-174.45" font-family="Times,serif" font-size="14.00">dev&#45;&lt;project&gt;&#45;client&#45;bucket&#45;123456789012&#45;synced&#45;folder</text>
</g>
<!-- Resource9&#45;&gt;Resource10 -->
<g id="edge10" class="edge">
<title>Resource9&#45;&gt;Resource10</title>
<path fill="none" stroke="#246c60" d="M357.72,-254.47C526.22,-238.68 815.21,-211.59 992.84,-194.95"/>
<polygon fill="#246c60" stroke="#246c60" points="992.98,-198.45 1002.61,-194.03 992.32,-191.48 992.98,-198.45"/>
</g>
<!-- Resource10&#45;&gt;Resource2 -->
<g id="edge34" class="edge">
<title>Resource10&#45;&gt;Resource2</title>
<path fill="none" stroke="#aa6639" d="M1176.21,-161.34C1225.04,-133.55 1327.16,-79.29 1421,-54 1512.95,-29.22 1622.79,-21.66 1694.36,-19.52"/>
<polygon fill="#aa6639" stroke="#aa6639" points="1694.09,-23.03 1704,-19.26 1693.91,-16.03 1694.09,-23.03"/>
</g>
<!-- Resource11&#45;&gt;Resource0 -->
<g id="edge12" class="edge">
<title>Resource11&#45;&gt;Resource0</title>
<path fill="none" stroke="#246c60" d="M2700.02,-254.56C2591.23,-238.45 2402.32,-210.47 2290.46,-193.9"/>
<polygon fill="#246c60" stroke="#246c60" points="2291.11,-190.46 2280.71,-192.45 2290.09,-197.38 2291.11,-190.46"/>
<text xml:space="preserve" text-anchor="middle" x="2563.06" y="-218.7" font-family="Times,serif" font-size="14.00">origins</text>
</g>
<!-- Resource11&#45;&gt;Resource2 -->
<g id="edge11" class="edge">
<title>Resource11&#45;&gt;Resource2</title>
<path fill="none" stroke="#aa6639" d="M2762.67,-249.95C2715.72,-213.13 2598.87,-125.29 2489,-73 2463.74,-60.98 2456.52,-59 2429,-54 2319,-34 1993.71,-24.15 1845.32,-20.6"/>
<polygon fill="#aa6639" stroke="#aa6639" points="1845.68,-17.11 1835.6,-20.37 1845.52,-24.11 1845.68,-17.11"/>
</g>
<!-- Resource13 -->
<g id="node12" class="node">
<title>Resource13</title>
<ellipse fill="none" stroke="black" cx="1125" cy="-268" rx="287.81" ry="18"/>
<text xml:space="preserve" text-anchor="middle" x="1125" y="-262.95" font-family="Times,serif" font-size="14.00">dev&#45;&lt;project&gt;&#45;client&#45;bucket&#45;123456789012&#45;synced&#45;folder&#45;sync&#45;command</text>
</g>
<!-- Resource13&#45;&gt;Resource10 -->
<g id="edge13" class="edge">
<title>Resource13&#45;&gt;Resource10</title>
<path fill="none" stroke="#aa6639" d="M1129.35,-249.91C1132.34,-238.14 1136.39,-222.23 1139.85,-208.61"/>
<polygon fill="#aa6639" stroke="#aa6639" points="1143.14,-209.87 1142.21,-199.32 1136.36,-208.15 1143.14,-209.87"/>
</g>
<!-- Resource14 -->
<g id="node13" class="node">
<title>Resource14</title>
<ellipse fill="none" stroke="black" cx="448" cy="-356.5" rx="174.7" ry="18"/>
<text xml:space="preserve" text-anchor="middle" x="448" y="-351.45" font-family="Times,serif" font-size="14.00">dev&#45;&lt;project&gt;&#45;viewer&#45;request&#45;lambda&#45;build</text>
</g>
<!-- Resource14&#45;&gt;Resource2 -->
<g id="edge14" class="edge">
<title>Resource14&#45;&gt;Resource2</title>
<path fill="none" stroke="#aa6639" d="M448,-338.27C448,-320.81 448,-293.03 448,-269 448,-269 448,-269 448,-90 448,-37.3 388.55,-72.3 622,-54 1025.1,-22.4 1509.88,-18.9 1694.04,-18.81"/>
<polygon fill="#aa6639" stroke="#aa6639" points="1693.96,-22.31 1703.95,-18.81 1693.95,-15.31 1693.96,-22.31"/>
</g>
<!-- Resource14&#45;&gt;Resource6 -->
<g id="edge15" class="edge">
<title>Resource14&#45;&gt;Resource6</title>
<path fill="none" stroke="#246c60" d="M490.75,-338.62C526.13,-324.64 576.56,-304.72 614.41,-289.77"/>
<polygon fill="#246c60" stroke="#246c60" points="615.31,-293.18 623.33,-286.25 612.74,-286.67 615.31,-293.18"/>
<text xml:space="preserve" text-anchor="middle" x="589.87" y="-307.2" font-family="Times,serif" font-size="14.00">code</text>
</g>
<!-- Resource15 -->
<g id="node14" class="node">
<title>Resource15</title>
<ellipse fill="none" stroke="black" cx="1735" cy="-268" rx="189.54" ry="18"/>
<text xml:space="preserve" text-anchor="middle" x="1735" y="-262.95" font-family="Times,serif" font-size="14.00">dev&#45;&lt;project&gt;&#45;client&#45;bucket&#45;123456789012&#45;oac</text>
</g>
<!-- Resource15&#45;&gt;Resource0 -->
<g id="edge17" class="edge">
<title>Resource15&#45;&gt;Resource0</title>
<path fill="none" stroke="#246c60" d="M1895.85,-258.15C1930.66,-252.83 1966.7,-244.6 1999,-232 2010.89,-227.36 2010.76,-220.51 2022.5,-215.5 2046.89,-205.09 2074.5,-197.74 2100.56,-192.56"/>
<polygon fill="#246c60" stroke="#246c60" points="2100.95,-196.05 2110.13,-190.75 2099.65,-189.17 2100.95,-196.05"/>
<text xml:space="preserve" text-anchor="middle" x="2041.25" y="-218.7" font-family="Times,serif" font-size="14.00">origins</text>
</g>
<!-- Resource15&#45;&gt;Resource2 -->
<g id="edge16" class="edge">
<title>Resource15&#45;&gt;Resource2</title>
<path fill="none" stroke="#aa6639" d="M1803.77,-250.87C1823.28,-242.79 1836.67,-231.29 1826,-215.5 1751.12,-104.7 1479.12,-178.73 1561,-73 1578.17,-50.84 1646.65,-36.13 1700.6,-27.74"/>
<polygon fill="#aa6639" stroke="#aa6639" points="1701.01,-31.22 1710.38,-26.27 1699.97,-24.3 1701.01,-31.22"/>
</g>
<!-- Resource16 -->
<g id="node15" class="node">
<title>Resource16</title>
<ellipse fill="none" stroke="black" cx="1425" cy="-533.5" rx="112.26" ry="18"/>
<text xml:space="preserve" text-anchor="middle" x="1425" y="-528.45" font-family="Times,serif" font-size="14.00">organization/&lt;project&gt;/dev</text>
</g>
<!-- Resource16&#45;&gt;Resource2 -->
<g id="edge23" class="edge">
<title>Resource16&#45;&gt;Resource2</title>
<path fill="none" stroke="#aa6639" d="M1535.96,-530.26C1937.03,-521.82 3288,-490.12 3288,-446 3288,-446 3288,-446 3288,-90 3288,5.57 3831.51,-95.28 3002,-54 2564.29,-32.22 2038.37,-22.89 1845.56,-20.03"/>
<polygon fill="#aa6639" stroke="#aa6639" points="1845.73,-16.53 1835.68,-19.88 1845.63,-23.53 1845.73,-16.53"/>
</g>
<!-- Resource16&#45;&gt;Resource7 -->
<g id="edge20" class="edge">
<title>Resource16&#45;&gt;Resource7</title>
<path fill="none" stroke="#246c60" d="M1392.8,-515.82C1366.55,-502.22 1329.25,-482.9 1300.54,-468.03"/>
<polygon fill="#246c60" stroke="#246c60" points="1302.22,-464.96 1291.73,-463.47 1299,-471.18 1302.22,-464.96"/>
<text xml:space="preserve" text-anchor="middle" x="1377.08" y="-484.2" font-family="Times,serif" font-size="14.00">triggers</text>
</g>
<!-- Resource16&#45;&gt;Resource8 -->
<g id="edge24" class="edge">
<title>Resource16&#45;&gt;Resource8</title>
<path fill="none" stroke="#246c60" d="M1492.72,-518.77C1650.52,-486.77 2041.98,-407.39 2209.69,-373.38"/>
<polygon fill="#246c60" stroke="#246c60" points="2210.31,-376.83 2219.41,-371.41 2208.91,-369.97 2210.31,-376.83"/>
<text xml:space="preserve" text-anchor="middle" x="1976.79" y="-439.95" font-family="Times,serif" font-size="14.00">environment</text>
</g>
<!-- Resource16&#45;&gt;Resource9 -->
<g id="edge21" class="edge">
<title>Resource16&#45;&gt;Resource9</title>
<path fill="none" stroke="#246c60" d="M1313.28,-531.45C1054.7,-526.82 424.81,-502.38 264,-374.5 240.55,-355.85 230.84,-321.82 226.83,-297.45"/>
<polygon fill="#246c60" stroke="#246c60" points="230.34,-297.29 225.49,-287.87 223.4,-298.26 230.34,-297.29"/>
<text xml:space="preserve" text-anchor="middle" x="337.22" y="-395.7" font-family="Times,serif" font-size="14.00">triggers</text>
</g>
<!-- Resource16&#45;&gt;Resource14 -->
<g id="edge22" class="edge">
<title>Resource16&#45;&gt;Resource14</title>
<path fill="none" stroke="#246c60" d="M1429.59,-515.2C1436.36,-485.23 1444.87,-423.87 1411,-392.5 1395.12,-377.79 653.61,-375.75 632,-374.5 615.19,-373.53 597.53,-372.24 580.08,-370.81"/>
<polygon fill="#246c60" stroke="#246c60" points="580.43,-367.33 570.17,-369.98 579.84,-374.3 580.43,-367.33"/>
<text xml:space="preserve" text-anchor="middle" x="1456.4" y="-439.95" font-family="Times,serif" font-size="14.00">triggers</text>
</g>
<!-- Resource17 -->
<g id="node16" class="node">
<title>Resource17</title>
<ellipse fill="none" stroke="black" cx="2482" cy="-445" rx="126.59" ry="18"/>
<text xml:space="preserve" text-anchor="middle" x="2482" y="-439.95" font-family="Times,serif" font-size="14.00">dev&#45;&lt;project&gt;&#45;api&#45;lambda&#45;role</text>
</g>
<!-- Resource17&#45;&gt;Resource2 -->
<g id="edge25" class="edge">
<title>Resource17&#45;&gt;Resource2</title>
<path fill="none" stroke="#aa6639" d="M2590.75,-435.51C2735.1,-422.74 2972,-395.94 2972,-357.5 2972,-357.5 2972,-357.5 2972,-90 2972,-37.38 3031.45,-72.72 2798,-54 2442.59,-25.5 2016.25,-20.17 1845.81,-19.2"/>
<polygon fill="#aa6639" stroke="#aa6639" points="1846,-15.7 1835.98,-19.15 1845.96,-22.7 1846,-15.7"/>
</g>
<!-- Resource17&#45;&gt;Resource8 -->
<g id="edge26" class="edge">
<title>Resource17&#45;&gt;Resource8</title>
<path fill="none" stroke="#246c60" d="M2444.59,-427.32C2413.4,-413.41 2368.77,-393.51 2335.14,-378.52"/>
<polygon fill="#246c60" stroke="#246c60" points="2336.57,-375.33 2326.01,-374.45 2333.72,-381.72 2336.57,-375.33"/>
<text xml:space="preserve" text-anchor="middle" x="2412.88" y="-395.7" font-family="Times,serif" font-size="14.00">role</text>
</g>
<!-- Resource18&#45;&gt;Resource0 -->
<g id="edge33" class="edge">
<title>Resource18&#45;&gt;Resource0</title>
<path fill="none" stroke="#246c60" d="M2461.15,-251.54C2406.35,-236.63 2323.48,-214.09 2265.85,-198.41"/>
<polygon fill="#246c60" stroke="#246c60" points="2267.06,-195.11 2256.49,-195.87 2265.22,-201.87 2267.06,-195.11"/>
<text xml:space="preserve" text-anchor="middle" x="2406.23" y="-218.7" font-family="Times,serif" font-size="14.00">origins</text>
</g>
<!-- Resource18&#45;&gt;Resource2 -->
<g id="edge32" class="edge">
<title>Resource18&#45;&gt;Resource2</title>
<path fill="none" stroke="#aa6639" d="M2518.05,-249.76C2517.24,-212.58 2510.12,-124.07 2463,-73 2446.6,-55.22 2435.68,-58.94 2412,-54 2305.87,-31.87 1991.19,-23.17 1845.54,-20.26"/>
<polygon fill="#aa6639" stroke="#aa6639" points="1845.66,-16.77 1835.6,-20.07 1845.53,-23.77 1845.66,-16.77"/>
</g>
<!-- Resource20 -->
<g id="node18" class="node">
<title>Resource20</title>
<ellipse fill="none" stroke="black" cx="3130" cy="-91" rx="130.17" ry="18"/>
<text xml:space="preserve" text-anchor="middle" x="3130" y="-85.95" font-family="Times,serif" font-size="14.00">dev&#45;&lt;project&gt;&#45;virginia&#45;provider</text>
</g>
<!-- Resource20&#45;&gt;Resource2 -->
<g id="edge36" class="edge">
<title>Resource20&#45;&gt;Resource2</title>
<path fill="none" stroke="#aa6639" d="M3077.87,-74.07C3050.75,-66.53 3016.89,-58.25 2986,-54 2764.18,-23.45 2075.55,-19.5 1845.62,-19.04"/>
<polygon fill="#aa6639" stroke="#aa6639" points="1845.89,-15.54 1835.88,-19.02 1845.87,-22.54 1845.89,-15.54"/>
</g>
<!-- Resource22 -->
<g id="node19" class="node">
<title>Resource22</title>
<ellipse fill="none" stroke="black" cx="1498" cy="-356.5" rx="173.67" ry="18"/>
<text xml:space="preserve" text-anchor="middle" x="1498" y="-351.45" font-family="Times,serif" font-size="14.00">dev&#45;&lt;project&gt;&#45;client&#45;bucket&#45;123456789012</text>
</g>
<!-- Resource22&#45;&gt;Resource0 -->
<g id="edge42" class="edge">
<title>Resource22&#45;&gt;Resource0</title>
<path fill="none" stroke="#246c60" d="M1619.81,-343.34C1708.1,-332.78 1829.78,-314.6 1934,-286 1955.65,-280.06 2079.29,-229.93 2150.14,-200.96"/>
<polygon fill="#246c60" stroke="#246c60" points="2151.28,-204.28 2159.21,-197.25 2148.63,-197.8 2151.28,-204.28"/>
<text xml:space="preserve" text-anchor="middle" x="2111.09" y="-262.95" font-family="Times,serif" font-size="14.00">defaultCacheBehavior, origins</text>
</g>
<!-- Resource22&#45;&gt;Resource1 -->
<g id="edge40" class="edge">
<title>Resource22&#45;&gt;Resource1</title>
<path fill="none" stroke="#246c60" d="M1499.23,-338.07C1501.87,-314.49 1510.14,-272.77 1536,-250 1563.68,-225.63 1584.29,-249.03 1617,-232 1671.94,-203.41 1722.13,-150.03 1749.14,-118.08"/>
<polygon fill="#246c60" stroke="#246c60" points="1751.78,-120.39 1755.48,-110.46 1746.4,-115.91 1751.78,-120.39"/>
<text xml:space="preserve" text-anchor="middle" x="1681.6" y="-218.7" font-family="Times,serif" font-size="14.00">bucket, policy</text>
</g>
<!-- Resource22&#45;&gt;Resource2 -->
<g id="edge41" class="edge">
<title>Resource22&#45;&gt;Resource2</title>
<path fill="none" stroke="#aa6639" d="M1489.02,-338.07C1473.04,-306.1 1441.95,-239.2 1449,-215.5 1470.56,-143.01 1484.37,-121.97 1542,-73 1565.83,-52.75 1643.28,-37.35 1701.34,-28.27"/>
<polygon fill="#aa6639" stroke="#aa6639" points="1701.82,-31.74 1711.18,-26.77 1700.76,-24.82 1701.82,-31.74"/>
</g>
<!-- Resource22&#45;&gt;Resource10 -->
<g id="edge39" class="edge">
<title>Resource22&#45;&gt;Resource10</title>
<path fill="none" stroke="#246c60" d="M1480.46,-338.33C1475.23,-332.85 1469.66,-326.61 1465,-320.5 1442.73,-291.32 1451.54,-271.78 1422,-250 1385.74,-223.26 1340.26,-206.76 1296.8,-196.59"/>
<polygon fill="#246c60" stroke="#246c60" points="1297.8,-193.23 1287.28,-194.47 1296.28,-200.06 1297.8,-193.23"/>
</g>
<!-- Resource22&#45;&gt;Resource13 -->
<g id="edge37" class="edge">
<title>Resource22&#45;&gt;Resource13</title>
<path fill="none" stroke="#246c60" d="M1410.39,-340.63C1379.07,-334.89 1343.6,-327.93 1311.5,-320.5 1271.76,-311.3 1227.76,-299.24 1192.48,-289.1"/>
<polygon fill="#246c60" stroke="#246c60" points="1193.85,-285.86 1183.27,-286.45 1191.91,-292.58 1193.85,-285.86"/>
<text xml:space="preserve" text-anchor="middle" x="1369.25" y="-307.2" font-family="Times,serif" font-size="14.00">create, delete, update</text>
</g>
<!-- Resource22&#45;&gt;Resource15 -->
<g id="edge38" class="edge">
<title>Resource22&#45;&gt;Resource15</title>
<path fill="none" stroke="#246c60" d="M1543.98,-338.72C1582.28,-324.74 1637.02,-304.76 1678.09,-289.77"/>
<polygon fill="#246c60" stroke="#246c60" points="1679.13,-293.12 1687.33,-286.4 1676.73,-286.54 1679.13,-293.12"/>
<text xml:space="preserve" text-anchor="middle" x="1652.73" y="-307.2" font-family="Times,serif" font-size="14.00">name</text>
</g>
</g>
</svg>
